<?xml version="1.0" encoding="utf-8" standalone="no"?>
<!DOCTYPE svg PUBLIC "-//W3C//DTD SVG 1.1//EN"
  "http://www.w3.org/Graphics/SVG/1.1/DTD/svg11.dtd">
<svg xmlns:xlink="http://www.w3.org/1999/xlink" width="460.8pt" height="345.6pt" viewBox="0 0 460.8 345.6" xmlns="http://www.w3.org/2000/svg" version="1.1">
 <metadata>
  <rdf:RDF xmlns:dc="http://purl.org/dc/elements/1.1/" xmlns:cc="http://creativecommons.org/ns#" xmlns:rdf="http://www.w3.org/1999/02/22-rdf-syntax-ns#">
   <cc:Work>
    <dc:type rdf:resource="http://purl.org/dc/dcmitype/StillImage"/>
    <dc:date>2022-10-17T13:13:21.464972</dc:date>
    <dc:format>image/svg+xml</dc:format>
    <dc:creator>
     <cc:Agent>
      <dc:title>Matplotlib v3.6.1, https://matplotlib.org/</dc:title>
     </cc:Agent>
    </dc:creator>
   </cc:Work>
  </rdf:RDF>
 </metadata>
 <defs>
  <style type="text/css">*{stroke-linejoin: round; stroke-linecap: butt}</style>
 </defs>
 <g id="figure_1">
  <g id="patch_1">
   <path d="M 0 345.6 
L 460.8 345.6 
L 460.8 0 
L 0 0 
z
" style="fill: #ffffff"/>
  </g>
  <g id="axes_1">
   <g id="patch_2">
    <path d="M 57.6 307.584 
L 414.72 307.584 
L 414.72 41.472 
L 57.6 41.472 
z
" style="fill: #ffffff"/>
   </g>
   <g id="matplotlib.axis_1">
    <g id="xtick_1">
     <g id="line2d_1">
      <defs>
       <path id="m6f38c01398" d="M 0 0 
L 0 3.5 
" style="stroke: #000000; stroke-width: 0.8"/>
      </defs>
      <g>
       <use xlink:href="#m6f38c01398" x="73.832727" y="307.584" style="stroke: #000000; stroke-width: 0.8"/>
      </g>
     </g>
     <g id="text_1">
      <!-- 0 -->
      <g transform="translate(70.651477 322.182437) scale(0.1 -0.1)">
       <defs>
        <path id="DejaVuSans-30" d="M 2034 4250 
Q 1547 4250 1301 3770 
Q 1056 3291 1056 2328 
Q 1056 1369 1301 889 
Q 1547 409 2034 409 
Q 2525 409 2770 889 
Q 3016 1369 3016 2328 
Q 3016 3291 2770 3770 
Q 2525 4250 2034 4250 
z
M 2034 4750 
Q 2819 4750 3233 4129 
Q 3647 3509 3647 2328 
Q 3647 1150 3233 529 
Q 2819 -91 2034 -91 
Q 1250 -91 836 529 
Q 422 1150 422 2328 
Q 422 3509 836 4129 
Q 1250 4750 2034 4750 
z
" transform="scale(0.015625)"/>
       </defs>
       <use xlink:href="#DejaVuSans-30"/>
      </g>
     </g>
    </g>
    <g id="xtick_2">
     <g id="line2d_2">
      <g>
       <use xlink:href="#m6f38c01398" x="117.12" y="307.584" style="stroke: #000000; stroke-width: 0.8"/>
      </g>
     </g>
     <g id="text_2">
      <!-- 2 -->
      <g transform="translate(113.93875 322.182437) scale(0.1 -0.1)">
       <defs>
        <path id="DejaVuSans-32" d="M 1228 531 
L 3431 531 
L 3431 0 
L 469 0 
L 469 531 
Q 828 903 1448 1529 
Q 2069 2156 2228 2338 
Q 2531 2678 2651 2914 
Q 2772 3150 2772 3378 
Q 2772 3750 2511 3984 
Q 2250 4219 1831 4219 
Q 1534 4219 1204 4116 
Q 875 4013 500 3803 
L 500 4441 
Q 881 4594 1212 4672 
Q 1544 4750 1819 4750 
Q 2544 4750 2975 4387 
Q 3406 4025 3406 3419 
Q 3406 3131 3298 2873 
Q 3191 2616 2906 2266 
Q 2828 2175 2409 1742 
Q 1991 1309 1228 531 
z
" transform="scale(0.015625)"/>
       </defs>
       <use xlink:href="#DejaVuSans-32"/>
      </g>
     </g>
    </g>
    <g id="xtick_3">
     <g id="line2d_3">
      <g>
       <use xlink:href="#m6f38c01398" x="160.407273" y="307.584" style="stroke: #000000; stroke-width: 0.8"/>
      </g>
     </g>
     <g id="text_3">
      <!-- 4 -->
      <g transform="translate(157.226023 322.182437) scale(0.1 -0.1)">
       <defs>
        <path id="DejaVuSans-34" d="M 2419 4116 
L 825 1625 
L 2419 1625 
L 2419 4116 
z
M 2253 4666 
L 3047 4666 
L 3047 1625 
L 3713 1625 
L 3713 1100 
L 3047 1100 
L 3047 0 
L 2419 0 
L 2419 1100 
L 313 1100 
L 313 1709 
L 2253 4666 
z
" transform="scale(0.015625)"/>
       </defs>
       <use xlink:href="#DejaVuSans-34"/>
      </g>
     </g>
    </g>
    <g id="xtick_4">
     <g id="line2d_4">
      <g>
       <use xlink:href="#m6f38c01398" x="203.694545" y="307.584" style="stroke: #000000; stroke-width: 0.8"/>
      </g>
     </g>
     <g id="text_4">
      <!-- 6 -->
      <g transform="translate(200.513295 322.182437) scale(0.1 -0.1)">
       <defs>
        <path id="DejaVuSans-36" d="M 2113 2584 
Q 1688 2584 1439 2293 
Q 1191 2003 1191 1497 
Q 1191 994 1439 701 
Q 1688 409 2113 409 
Q 2538 409 2786 701 
Q 3034 994 3034 1497 
Q 3034 2003 2786 2293 
Q 2538 2584 2113 2584 
z
M 3366 4563 
L 3366 3988 
Q 3128 4100 2886 4159 
Q 2644 4219 2406 4219 
Q 1781 4219 1451 3797 
Q 1122 3375 1075 2522 
Q 1259 2794 1537 2939 
Q 1816 3084 2150 3084 
Q 2853 3084 3261 2657 
Q 3669 2231 3669 1497 
Q 3669 778 3244 343 
Q 2819 -91 2113 -91 
Q 1303 -91 875 529 
Q 447 1150 447 2328 
Q 447 3434 972 4092 
Q 1497 4750 2381 4750 
Q 2619 4750 2861 4703 
Q 3103 4656 3366 4563 
z
" transform="scale(0.015625)"/>
       </defs>
       <use xlink:href="#DejaVuSans-36"/>
      </g>
     </g>
    </g>
    <g id="xtick_5">
     <g id="line2d_5">
      <g>
       <use xlink:href="#m6f38c01398" x="246.981818" y="307.584" style="stroke: #000000; stroke-width: 0.8"/>
      </g>
     </g>
     <g id="text_5">
      <!-- 8 -->
      <g transform="translate(243.800568 322.182437) scale(0.1 -0.1)">
       <defs>
        <path id="DejaVuSans-38" d="M 2034 2216 
Q 1584 2216 1326 1975 
Q 1069 1734 1069 1313 
Q 1069 891 1326 650 
Q 1584 409 2034 409 
Q 2484 409 2743 651 
Q 3003 894 3003 1313 
Q 3003 1734 2745 1975 
Q 2488 2216 2034 2216 
z
M 1403 2484 
Q 997 2584 770 2862 
Q 544 3141 544 3541 
Q 544 4100 942 4425 
Q 1341 4750 2034 4750 
Q 2731 4750 3128 4425 
Q 3525 4100 3525 3541 
Q 3525 3141 3298 2862 
Q 3072 2584 2669 2484 
Q 3125 2378 3379 2068 
Q 3634 1759 3634 1313 
Q 3634 634 3220 271 
Q 2806 -91 2034 -91 
Q 1263 -91 848 271 
Q 434 634 434 1313 
Q 434 1759 690 2068 
Q 947 2378 1403 2484 
z
M 1172 3481 
Q 1172 3119 1398 2916 
Q 1625 2713 2034 2713 
Q 2441 2713 2670 2916 
Q 2900 3119 2900 3481 
Q 2900 3844 2670 4047 
Q 2441 4250 2034 4250 
Q 1625 4250 1398 4047 
Q 1172 3844 1172 3481 
z
" transform="scale(0.015625)"/>
       </defs>
       <use xlink:href="#DejaVuSans-38"/>
      </g>
     </g>
    </g>
    <g id="xtick_6">
     <g id="line2d_6">
      <g>
       <use xlink:href="#m6f38c01398" x="290.269091" y="307.584" style="stroke: #000000; stroke-width: 0.8"/>
      </g>
     </g>
     <g id="text_6">
      <!-- 10 -->
      <g transform="translate(283.906591 322.182437) scale(0.1 -0.1)">
       <defs>
        <path id="DejaVuSans-31" d="M 794 531 
L 1825 531 
L 1825 4091 
L 703 3866 
L 703 4441 
L 1819 4666 
L 2450 4666 
L 2450 531 
L 3481 531 
L 3481 0 
L 794 0 
L 794 531 
z
" transform="scale(0.015625)"/>
       </defs>
       <use xlink:href="#DejaVuSans-31"/>
       <use xlink:href="#DejaVuSans-30" x="63.623047"/>
      </g>
     </g>
    </g>
    <g id="xtick_7">
     <g id="line2d_7">
      <g>
       <use xlink:href="#m6f38c01398" x="333.556364" y="307.584" style="stroke: #000000; stroke-width: 0.8"/>
      </g>
     </g>
     <g id="text_7">
      <!-- 12 -->
      <g transform="translate(327.193864 322.182437) scale(0.1 -0.1)">
       <use xlink:href="#DejaVuSans-31"/>
       <use xlink:href="#DejaVuSans-32" x="63.623047"/>
      </g>
     </g>
    </g>
    <g id="xtick_8">
     <g id="line2d_8">
      <g>
       <use xlink:href="#m6f38c01398" x="376.843636" y="307.584" style="stroke: #000000; stroke-width: 0.8"/>
      </g>
     </g>
     <g id="text_8">
      <!-- 14 -->
      <g transform="translate(370.481136 322.182437) scale(0.1 -0.1)">
       <use xlink:href="#DejaVuSans-31"/>
       <use xlink:href="#DejaVuSans-34" x="63.623047"/>
      </g>
     </g>
    </g>
   </g>
   <g id="matplotlib.axis_2">
    <g id="ytick_1">
     <g id="line2d_9">
      <defs>
       <path id="me8a8682fdd" d="M 0 0 
L -3.5 0 
" style="stroke: #000000; stroke-width: 0.8"/>
      </defs>
      <g>
       <use xlink:href="#me8a8682fdd" x="57.6" y="295.221645" style="stroke: #000000; stroke-width: 0.8"/>
      </g>
     </g>
     <g id="text_9">
      <!-- −0.6 -->
      <g transform="translate(26.317187 299.020863) scale(0.1 -0.1)">
       <defs>
        <path id="DejaVuSans-2212" d="M 678 2272 
L 4684 2272 
L 4684 1741 
L 678 1741 
L 678 2272 
z
" transform="scale(0.015625)"/>
        <path id="DejaVuSans-2e" d="M 684 794 
L 1344 794 
L 1344 0 
L 684 0 
L 684 794 
z
" transform="scale(0.015625)"/>
       </defs>
       <use xlink:href="#DejaVuSans-2212"/>
       <use xlink:href="#DejaVuSans-30" x="83.789062"/>
       <use xlink:href="#DejaVuSans-2e" x="147.412109"/>
       <use xlink:href="#DejaVuSans-36" x="179.199219"/>
      </g>
     </g>
    </g>
    <g id="ytick_2">
     <g id="line2d_10">
      <g>
       <use xlink:href="#me8a8682fdd" x="57.6" y="265.014939" style="stroke: #000000; stroke-width: 0.8"/>
      </g>
     </g>
     <g id="text_10">
      <!-- −0.4 -->
      <g transform="translate(26.317187 268.814158) scale(0.1 -0.1)">
       <use xlink:href="#DejaVuSans-2212"/>
       <use xlink:href="#DejaVuSans-30" x="83.789062"/>
       <use xlink:href="#DejaVuSans-2e" x="147.412109"/>
       <use xlink:href="#DejaVuSans-34" x="179.199219"/>
      </g>
     </g>
    </g>
    <g id="ytick_3">
     <g id="line2d_11">
      <g>
       <use xlink:href="#me8a8682fdd" x="57.6" y="234.808234" style="stroke: #000000; stroke-width: 0.8"/>
      </g>
     </g>
     <g id="text_11">
      <!-- −0.2 -->
      <g transform="translate(26.317187 238.607452) scale(0.1 -0.1)">
       <use xlink:href="#DejaVuSans-2212"/>
       <use xlink:href="#DejaVuSans-30" x="83.789062"/>
       <use xlink:href="#DejaVuSans-2e" x="147.412109"/>
       <use xlink:href="#DejaVuSans-32" x="179.199219"/>
      </g>
     </g>
    </g>
    <g id="ytick_4">
     <g id="line2d_12">
      <g>
       <use xlink:href="#me8a8682fdd" x="57.6" y="204.601528" style="stroke: #000000; stroke-width: 0.8"/>
      </g>
     </g>
     <g id="text_12">
      <!-- 0.0 -->
      <g transform="translate(34.696875 208.400747) scale(0.1 -0.1)">
       <use xlink:href="#DejaVuSans-30"/>
       <use xlink:href="#DejaVuSans-2e" x="63.623047"/>
       <use xlink:href="#DejaVuSans-30" x="95.410156"/>
      </g>
     </g>
    </g>
    <g id="ytick_5">
     <g id="line2d_13">
      <g>
       <use xlink:href="#me8a8682fdd" x="57.6" y="174.394822" style="stroke: #000000; stroke-width: 0.8"/>
      </g>
     </g>
     <g id="text_13">
      <!-- 0.2 -->
      <g transform="translate(34.696875 178.194041) scale(0.1 -0.1)">
       <use xlink:href="#DejaVuSans-30"/>
       <use xlink:href="#DejaVuSans-2e" x="63.623047"/>
       <use xlink:href="#DejaVuSans-32" x="95.410156"/>
      </g>
     </g>
    </g>
    <g id="ytick_6">
     <g id="line2d_14">
      <g>
       <use xlink:href="#me8a8682fdd" x="57.6" y="144.188117" style="stroke: #000000; stroke-width: 0.8"/>
      </g>
     </g>
     <g id="text_14">
      <!-- 0.4 -->
      <g transform="translate(34.696875 147.987336) scale(0.1 -0.1)">
       <use xlink:href="#DejaVuSans-30"/>
       <use xlink:href="#DejaVuSans-2e" x="63.623047"/>
       <use xlink:href="#DejaVuSans-34" x="95.410156"/>
      </g>
     </g>
    </g>
    <g id="ytick_7">
     <g id="line2d_15">
      <g>
       <use xlink:href="#me8a8682fdd" x="57.6" y="113.981411" style="stroke: #000000; stroke-width: 0.8"/>
      </g>
     </g>
     <g id="text_15">
      <!-- 0.6 -->
      <g transform="translate(34.696875 117.78063) scale(0.1 -0.1)">
       <use xlink:href="#DejaVuSans-30"/>
       <use xlink:href="#DejaVuSans-2e" x="63.623047"/>
       <use xlink:href="#DejaVuSans-36" x="95.410156"/>
      </g>
     </g>
    </g>
    <g id="ytick_8">
     <g id="line2d_16">
      <g>
       <use xlink:href="#me8a8682fdd" x="57.6" y="83.774706" style="stroke: #000000; stroke-width: 0.8"/>
      </g>
     </g>
     <g id="text_16">
      <!-- 0.8 -->
      <g transform="translate(34.696875 87.573924) scale(0.1 -0.1)">
       <use xlink:href="#DejaVuSans-30"/>
       <use xlink:href="#DejaVuSans-2e" x="63.623047"/>
       <use xlink:href="#DejaVuSans-38" x="95.410156"/>
      </g>
     </g>
    </g>
    <g id="ytick_9">
     <g id="line2d_17">
      <g>
       <use xlink:href="#me8a8682fdd" x="57.6" y="53.568" style="stroke: #000000; stroke-width: 0.8"/>
      </g>
     </g>
     <g id="text_17">
      <!-- 1.0 -->
      <g transform="translate(34.696875 57.367219) scale(0.1 -0.1)">
       <use xlink:href="#DejaVuSans-31"/>
       <use xlink:href="#DejaVuSans-2e" x="63.623047"/>
       <use xlink:href="#DejaVuSans-30" x="95.410156"/>
      </g>
     </g>
    </g>
   </g>
   <g id="line2d_18">
    <path d="M 73.832727 53.568 
L 77.112066 53.568 
L 80.391405 57.035253 
L 83.670744 63.444417 
L 86.950083 72.270151 
L 90.229421 82.999174 
L 93.50876 95.140498 
L 96.788099 108.233833 
L 100.067438 121.856209 
L 103.346777 135.626887 
L 106.626116 149.210669 
L 109.905455 162.319743 
L 113.184793 174.714192 
L 116.464132 186.201351 
L 119.743471 196.63415 
L 123.02281 205.908632 
L 126.302149 213.960795 
L 129.581488 220.762926 
L 132.860826 226.319572 
L 136.140165 230.663288 
L 139.419504 233.850287 
L 142.698843 235.956112 
L 145.978182 237.071413 
L 149.257521 237.297927 
L 152.53686 236.744715 
L 155.816198 235.524716 
L 159.095537 233.75166 
L 162.374876 231.53735 
L 165.654215 228.989347 
L 168.933554 226.209043 
L 172.212893 223.290131 
L 175.492231 220.317437 
L 178.77157 217.36612 
L 182.050909 214.501185 
L 185.330248 211.777296 
L 188.609587 209.238853 
L 191.888926 206.920289 
L 195.168264 204.846565 
L 198.447603 203.03381 
L 201.726942 201.490089 
L 205.006281 200.216256 
L 208.28562 199.206856 
L 211.564959 198.451067 
L 214.844298 197.933637 
L 218.123636 197.6358 
L 221.402975 197.536164 
L 224.682314 197.611535 
L 227.961653 197.837685 
L 231.240992 198.190038 
L 234.520331 198.644281 
L 237.799669 199.176886 
L 241.079008 199.765553 
L 244.358347 200.389561 
L 247.637686 201.030041 
L 250.917025 201.670172 
L 254.196364 202.295304 
L 257.475702 202.893013 
L 260.755041 203.453104 
L 264.03438 203.967554 
L 267.313719 204.430422 
L 270.593058 204.837713 
L 273.872397 205.18722 
L 277.151736 205.47835 
L 280.431074 205.711924 
L 283.710413 205.889979 
L 286.989752 206.015564 
L 290.269091 206.092543 
L 293.54843 206.125396 
L 296.827769 206.119043 
L 300.107107 206.078669 
L 303.386446 206.009575 
L 306.665785 205.917039 
L 309.945124 205.8062 
L 313.224463 205.681954 
L 316.503802 205.548878 
L 319.78314 205.411162 
L 323.062479 205.272564 
L 326.341818 205.136379 
L 329.621157 205.005423 
L 332.900496 204.88203 
L 336.179835 204.768061 
L 339.459174 204.664921 
L 342.738512 204.573585 
L 346.017851 204.494632 
L 349.29719 204.428284 
L 352.576529 204.374442 
L 355.855868 204.332735 
L 359.135207 204.302561 
L 362.414545 204.283129 
L 365.693884 204.273505 
L 368.973223 204.272648 
L 372.252562 204.279451 
L 375.531901 204.292774 
L 378.81124 204.311472 
L 382.090579 204.334425 
L 385.369917 204.360559 
L 388.649256 204.388865 
L 391.928595 204.418414 
L 395.207934 204.448369 
L 398.487273 204.477988 
" clip-path="url(#pee596831ec)" style="fill: none; stroke: #6a5acd; stroke-width: 1.5; stroke-linecap: square"/>
   </g>
   <g id="line2d_19">
    <path d="M 73.832727 53.568 
L 77.112066 55.214167 
L 80.391405 59.805104 
L 83.670744 66.829179 
L 86.950083 75.794963 
L 90.229421 86.238833 
L 93.50876 97.730924 
L 96.788099 109.879522 
L 100.067438 122.334026 
L 103.346777 134.786625 
L 106.626116 146.972825 
L 109.905455 158.670983 
L 113.184793 169.700992 
L 116.464132 179.922277 
L 119.743471 189.231218 
L 123.02281 197.558165 
L 126.302149 204.864137 
L 129.581488 211.137341 
L 132.860826 216.389602 
L 136.140165 220.652787 
L 139.419504 223.975313 
L 142.698843 226.418791 
L 145.978182 228.054859 
L 149.257521 228.962248 
L 152.53686 229.224115 
L 155.816198 228.925649 
L 159.095537 228.151977 
L 162.374876 226.98636 
L 165.654215 225.508685 
L 168.933554 223.794245 
L 172.212893 221.91278 
L 175.492231 219.927774 
L 178.77157 217.89599 
L 182.050909 215.867204 
L 185.330248 213.88413 
L 188.609587 211.982503 
L 191.888926 210.191304 
L 195.168264 208.533091 
L 198.447603 207.024424 
L 201.726942 205.676354 
L 205.006281 204.494963 
L 208.28562 203.481936 
L 211.564959 202.63514 
L 214.844298 201.949207 
L 218.123636 201.416106 
L 221.402975 201.025684 
L 224.682314 200.766181 
L 227.961653 200.624709 
L 231.240992 200.58768 
L 234.520331 200.641198 
L 237.799669 200.771395 
L 241.079008 200.964721 
L 244.358347 201.208191 
L 247.637686 201.489578 
L 250.917025 201.797569 
L 254.196364 202.121874 
L 257.475702 202.453304 
L 260.755041 202.783812 
L 264.03438 203.1065 
L 267.313719 203.415605 
L 270.593058 203.706467 
L 273.872397 203.975466 
L 277.151736 204.219955 
L 280.431074 204.438184 
L 283.710413 204.629203 
L 286.989752 204.792778 
L 290.269091 204.929288 
L 293.54843 205.039637 
L 296.827769 205.125157 
L 300.107107 205.18752 
L 303.386446 205.228656 
L 306.665785 205.250674 
L 309.945124 205.255795 
L 313.224463 205.246286 
L 316.503802 205.224404 
L 319.78314 205.192356 
L 323.062479 205.152252 
L 326.341818 205.106077 
L 329.621157 205.055666 
L 332.900496 205.002687 
L 336.179835 204.948628 
L 339.459174 204.894789 
L 342.738512 204.842284 
L 346.017851 204.792042 
L 349.29719 204.744814 
L 352.576529 204.701179 
L 355.855868 204.66156 
L 359.135207 204.626235 
L 362.414545 204.595351 
L 365.693884 204.568941 
L 368.973223 204.546937 
L 372.252562 204.529187 
L 375.531901 204.515471 
L 378.81124 204.505513 
L 382.090579 204.498996 
L 385.369917 204.495575 
L 388.649256 204.494889 
L 391.928595 204.496566 
L 395.207934 204.500239 
L 398.487273 204.505549 
" clip-path="url(#pee596831ec)" style="fill: none; stroke: #ff4500; stroke-width: 1.5; stroke-linecap: square"/>
   </g>
   <g id="line2d_20">
    <path d="M 73.832727 204.601528 
L 77.112066 227.485396 
L 80.391405 246.902011 
L 83.670744 262.851373 
L 86.950083 275.41308 
L 90.229421 284.734266 
L 93.50876 291.017541 
L 96.788099 294.50921 
L 100.067438 295.488 
L 103.346777 294.254492 
L 106.626116 291.121413 
L 109.905455 286.404894 
L 113.184793 280.416775 
L 116.464132 273.458001 
L 119.743471 265.813107 
L 123.02281 257.745804 
L 126.302149 249.495595 
L 129.581488 241.275393 
L 132.860826 233.27005 
L 136.140165 225.635722 
L 139.419504 218.499971 
L 142.698843 211.962516 
L 145.978182 206.096521 
L 149.257521 200.950327 
L 152.53686 196.549539 
L 155.816198 192.899358 
L 159.095537 189.987082 
L 162.374876 187.784706 
L 165.654215 186.251524 
L 168.933554 185.336703 
L 172.212893 184.98175 
L 175.492231 185.122837 
L 178.77157 185.692956 
L 182.050909 186.623862 
L 185.330248 187.847803 
L 188.609587 189.299008 
L 191.888926 190.914947 
L 195.168264 192.637344 
L 198.447603 194.412972 
L 201.726942 196.194226 
L 205.006281 197.93949 
L 208.28562 199.613324 
L 211.564959 201.186487 
L 214.844298 202.635806 
L 218.123636 203.943929 
L 221.402975 205.098978 
L 224.682314 206.094117 
L 227.961653 206.927057 
L 231.240992 207.599529 
L 234.520331 208.116724 
L 237.799669 208.486732 
L 241.079008 208.71998 
L 244.358347 208.828695 
L 247.637686 208.826392 
L 250.917025 208.727396 
L 254.196364 208.546409 
L 257.475702 208.298128 
L 260.755041 207.996903 
L 264.03438 207.656456 
L 267.313719 207.289644 
L 270.593058 206.908279 
L 273.872397 206.522986 
L 277.151736 206.143115 
L 280.431074 205.776689 
L 283.710413 205.430392 
L 286.989752 205.109587 
L 290.269091 204.81836 
L 293.54843 204.559596 
L 296.827769 204.33506 
L 300.107107 204.145507 
L 303.386446 203.990792 
L 306.665785 203.869987 
L 309.945124 203.781507 
L 313.224463 203.723226 
L 316.503802 203.692601 
L 319.78314 203.68678 
L 323.062479 203.702706 
L 326.341818 203.737219 
L 329.621157 203.787137 
L 332.900496 203.849333 
L 336.179835 203.920802 
L 339.459174 203.99871 
L 342.738512 204.080441 
L 346.017851 204.163627 
L 349.29719 204.246172 
L 352.576529 204.326263 
L 355.855868 204.402377 
L 359.135207 204.473277 
L 362.414545 204.538007 
L 365.693884 204.595874 
L 368.973223 204.646431 
L 372.252562 204.689458 
L 375.531901 204.724935 
L 378.81124 204.753018 
L 382.090579 204.774012 
L 385.369917 204.788349 
L 388.649256 204.796553 
L 391.928595 204.799225 
L 395.207934 204.797016 
L 398.487273 204.790602 
" clip-path="url(#pee596831ec)" style="fill: none; stroke-dasharray: 1.5,2.475; stroke-dashoffset: 0; stroke: #6a5acd; stroke-width: 1.5"/>
   </g>
   <g id="line2d_21">
    <path d="M 73.832727 204.601528 
L 77.112066 225.754986 
L 80.391405 243.484614 
L 83.670744 257.894826 
L 86.950083 269.145933 
L 90.229421 277.442872 
L 93.50876 283.024579 
L 96.788099 286.154127 
L 100.067438 287.109738 
L 103.346777 286.176739 
L 106.626116 283.640496 
L 109.905455 279.780343 
L 113.184793 274.864488 
L 116.464132 269.145876 
L 119.743471 262.858958 
L 123.02281 256.217304 
L 126.302149 249.412002 
L 129.581488 242.61075 
L 132.860826 235.957584 
L 136.140165 229.573142 
L 139.419504 223.555385 
L 142.698843 217.980706 
L 145.978182 212.905338 
L 149.257521 208.366989 
L 152.53686 204.386651 
L 155.816198 200.970497 
L 159.095537 198.11184 
L 162.374876 195.793077 
L 165.654215 193.987602 
L 168.933554 192.661637 
L 172.212893 191.775958 
L 175.492231 191.287492 
L 178.77157 191.150781 
L 182.050909 191.319274 
L 185.330248 191.74648 
L 188.609587 192.386941 
L 191.888926 193.197058 
L 195.168264 194.135754 
L 198.447603 195.164993 
L 201.726942 196.250161 
L 205.006281 197.360324 
L 208.28562 198.468362 
L 211.564959 199.551017 
L 214.844298 200.588837 
L 218.123636 201.566061 
L 221.402975 202.470431 
L 224.682314 203.292962 
L 227.961653 204.02767 
L 231.240992 204.671284 
L 234.520331 205.222925 
L 237.799669 205.683797 
L 241.079008 206.056861 
L 244.358347 206.346532 
L 247.637686 206.558375 
L 250.917025 206.698828 
L 254.196364 206.774942 
L 257.475702 206.794145 
L 260.755041 206.764029 
L 264.03438 206.692169 
L 267.313719 206.585962 
L 270.593058 206.452495 
L 273.872397 206.298438 
L 277.151736 206.129962 
L 280.431074 205.952676 
L 283.710413 205.771588 
L 286.989752 205.591083 
L 290.269091 205.414916 
L 293.54843 205.246224 
L 296.827769 205.087541 
L 300.107107 204.940836 
L 303.386446 204.807542 
L 306.665785 204.688608 
L 309.945124 204.584545 
L 313.224463 204.495473 
L 316.503802 204.421179 
L 319.78314 204.361165 
L 323.062479 204.3147 
L 326.341818 204.280865 
L 329.621157 204.258605 
L 332.900496 204.246766 
L 336.179835 204.244135 
L 339.459174 204.249472 
L 342.738512 204.261544 
L 346.017851 204.279147 
L 349.29719 204.30113 
L 352.576529 204.326409 
L 355.855868 204.353983 
L 359.135207 204.382944 
L 362.414545 204.41248 
L 365.693884 204.441883 
L 368.973223 204.470547 
L 372.252562 204.497965 
L 375.531901 204.523731 
L 378.81124 204.547528 
L 382.090579 204.569127 
L 385.369917 204.588379 
L 388.649256 204.605203 
L 391.928595 204.619584 
L 395.207934 204.631559 
L 398.487273 204.641212 
" clip-path="url(#pee596831ec)" style="fill: none; stroke-dasharray: 1.5,2.475; stroke-dashoffset: 0; stroke: #ff4500; stroke-width: 1.5"/>
   </g>
   <g id="patch_3">
    <path d="M 57.6 307.584 
L 57.6 41.472 
" style="fill: none; stroke: #000000; stroke-width: 0.8; stroke-linejoin: miter; stroke-linecap: square"/>
   </g>
   <g id="patch_4">
    <path d="M 414.72 307.584 
L 414.72 41.472 
" style="fill: none; stroke: #000000; stroke-width: 0.8; stroke-linejoin: miter; stroke-linecap: square"/>
   </g>
   <g id="patch_5">
    <path d="M 57.6 307.584 
L 414.72 307.584 
" style="fill: none; stroke: #000000; stroke-width: 0.8; stroke-linejoin: miter; stroke-linecap: square"/>
   </g>
   <g id="patch_6">
    <path d="M 57.6 41.472 
L 414.72 41.472 
" style="fill: none; stroke: #000000; stroke-width: 0.8; stroke-linejoin: miter; stroke-linecap: square"/>
   </g>
   <g id="legend_1">
    <g id="patch_7">
     <path d="M 348.27625 78.82825 
L 407.72 78.82825 
Q 409.72 78.82825 409.72 76.82825 
L 409.72 48.472 
Q 409.72 46.472 407.72 46.472 
L 348.27625 46.472 
Q 346.27625 46.472 346.27625 48.472 
L 346.27625 76.82825 
Q 346.27625 78.82825 348.27625 78.82825 
z
" style="fill: #ffffff; opacity: 0.8; stroke: #cccccc; stroke-linejoin: miter"/>
    </g>
    <g id="line2d_22">
     <path d="M 350.27625 54.570437 
L 360.27625 54.570437 
L 370.27625 54.570437 
" style="fill: none; stroke: #6a5acd; stroke-width: 1.5; stroke-linecap: square"/>
    </g>
    <g id="text_18">
     <!-- euler -->
     <g transform="translate(378.27625 58.070437) scale(0.1 -0.1)">
      <defs>
       <path id="DejaVuSans-65" d="M 3597 1894 
L 3597 1613 
L 953 1613 
Q 991 1019 1311 708 
Q 1631 397 2203 397 
Q 2534 397 2845 478 
Q 3156 559 3463 722 
L 3463 178 
Q 3153 47 2828 -22 
Q 2503 -91 2169 -91 
Q 1331 -91 842 396 
Q 353 884 353 1716 
Q 353 2575 817 3079 
Q 1281 3584 2069 3584 
Q 2775 3584 3186 3129 
Q 3597 2675 3597 1894 
z
M 3022 2063 
Q 3016 2534 2758 2815 
Q 2500 3097 2075 3097 
Q 1594 3097 1305 2825 
Q 1016 2553 972 2059 
L 3022 2063 
z
" transform="scale(0.015625)"/>
       <path id="DejaVuSans-75" d="M 544 1381 
L 544 3500 
L 1119 3500 
L 1119 1403 
Q 1119 906 1312 657 
Q 1506 409 1894 409 
Q 2359 409 2629 706 
Q 2900 1003 2900 1516 
L 2900 3500 
L 3475 3500 
L 3475 0 
L 2900 0 
L 2900 538 
Q 2691 219 2414 64 
Q 2138 -91 1772 -91 
Q 1169 -91 856 284 
Q 544 659 544 1381 
z
M 1991 3584 
L 1991 3584 
z
" transform="scale(0.015625)"/>
       <path id="DejaVuSans-6c" d="M 603 4863 
L 1178 4863 
L 1178 0 
L 603 0 
L 603 4863 
z
" transform="scale(0.015625)"/>
       <path id="DejaVuSans-72" d="M 2631 2963 
Q 2534 3019 2420 3045 
Q 2306 3072 2169 3072 
Q 1681 3072 1420 2755 
Q 1159 2438 1159 1844 
L 1159 0 
L 581 0 
L 581 3500 
L 1159 3500 
L 1159 2956 
Q 1341 3275 1631 3429 
Q 1922 3584 2338 3584 
Q 2397 3584 2469 3576 
Q 2541 3569 2628 3553 
L 2631 2963 
z
" transform="scale(0.015625)"/>
      </defs>
      <use xlink:href="#DejaVuSans-65"/>
      <use xlink:href="#DejaVuSans-75" x="61.523438"/>
      <use xlink:href="#DejaVuSans-6c" x="124.902344"/>
      <use xlink:href="#DejaVuSans-65" x="152.685547"/>
      <use xlink:href="#DejaVuSans-72" x="214.208984"/>
     </g>
    </g>
    <g id="line2d_23">
     <path d="M 350.27625 69.248562 
L 360.27625 69.248562 
L 370.27625 69.248562 
" style="fill: none; stroke: #ff4500; stroke-width: 1.5; stroke-linecap: square"/>
    </g>
    <g id="text_19">
     <!-- exact -->
     <g transform="translate(378.27625 72.748562) scale(0.1 -0.1)">
      <defs>
       <path id="DejaVuSans-78" d="M 3513 3500 
L 2247 1797 
L 3578 0 
L 2900 0 
L 1881 1375 
L 863 0 
L 184 0 
L 1544 1831 
L 300 3500 
L 978 3500 
L 1906 2253 
L 2834 3500 
L 3513 3500 
z
" transform="scale(0.015625)"/>
       <path id="DejaVuSans-61" d="M 2194 1759 
Q 1497 1759 1228 1600 
Q 959 1441 959 1056 
Q 959 750 1161 570 
Q 1363 391 1709 391 
Q 2188 391 2477 730 
Q 2766 1069 2766 1631 
L 2766 1759 
L 2194 1759 
z
M 3341 1997 
L 3341 0 
L 2766 0 
L 2766 531 
Q 2569 213 2275 61 
Q 1981 -91 1556 -91 
Q 1019 -91 701 211 
Q 384 513 384 1019 
Q 384 1609 779 1909 
Q 1175 2209 1959 2209 
L 2766 2209 
L 2766 2266 
Q 2766 2663 2505 2880 
Q 2244 3097 1772 3097 
Q 1472 3097 1187 3025 
Q 903 2953 641 2809 
L 641 3341 
Q 956 3463 1253 3523 
Q 1550 3584 1831 3584 
Q 2591 3584 2966 3190 
Q 3341 2797 3341 1997 
z
" transform="scale(0.015625)"/>
       <path id="DejaVuSans-63" d="M 3122 3366 
L 3122 2828 
Q 2878 2963 2633 3030 
Q 2388 3097 2138 3097 
Q 1578 3097 1268 2742 
Q 959 2388 959 1747 
Q 959 1106 1268 751 
Q 1578 397 2138 397 
Q 2388 397 2633 464 
Q 2878 531 3122 666 
L 3122 134 
Q 2881 22 2623 -34 
Q 2366 -91 2075 -91 
Q 1284 -91 818 406 
Q 353 903 353 1747 
Q 353 2603 823 3093 
Q 1294 3584 2113 3584 
Q 2378 3584 2631 3529 
Q 2884 3475 3122 3366 
z
" transform="scale(0.015625)"/>
       <path id="DejaVuSans-74" d="M 1172 4494 
L 1172 3500 
L 2356 3500 
L 2356 3053 
L 1172 3053 
L 1172 1153 
Q 1172 725 1289 603 
Q 1406 481 1766 481 
L 2356 481 
L 2356 0 
L 1766 0 
Q 1100 0 847 248 
Q 594 497 594 1153 
L 594 3053 
L 172 3053 
L 172 3500 
L 594 3500 
L 594 4494 
L 1172 4494 
z
" transform="scale(0.015625)"/>
      </defs>
      <use xlink:href="#DejaVuSans-65"/>
      <use xlink:href="#DejaVuSans-78" x="59.773438"/>
      <use xlink:href="#DejaVuSans-61" x="118.953125"/>
      <use xlink:href="#DejaVuSans-63" x="180.232422"/>
      <use xlink:href="#DejaVuSans-74" x="235.212891"/>
     </g>
    </g>
   </g>
  </g>
 </g>
 <defs>
  <clipPath id="pee596831ec">
   <rect x="57.6" y="41.472" width="357.12" height="266.112"/>
  </clipPath>
 </defs>
</svg>
