<?xml version="1.0" encoding="UTF-8" standalone="no"?>
<!DOCTYPE svg PUBLIC "-//W3C//DTD SVG 1.1//EN"
 "http://www.w3.org/Graphics/SVG/1.1/DTD/svg11.dtd">
<!-- Generated by graphviz version 2.50.0 (0)
 -->
<!-- Pages: 1 -->
<svg width="1901pt" height="408pt"
 viewBox="0.00 0.00 1900.85 407.74" xmlns="http://www.w3.org/2000/svg" xmlns:xlink="http://www.w3.org/1999/xlink">
<g id="graph0" class="graph" transform="scale(1 1) rotate(0) translate(4 403.74)">
<polygon fill="white" stroke="transparent" points="-4,4 -4,-403.74 1896.85,-403.74 1896.85,4 -4,4"/>
<!-- 4665405965844003252 -->
<g id="node1" class="node">
<title>4665405965844003252</title>
<ellipse fill="none" stroke="black" cx="1767.1" cy="-262.05" rx="36" ry="36"/>
<text text-anchor="middle" x="1767.1" y="-258.35" font-family="Helvetica,sans-Serif" font-size="14.00">gather</text>
</g>
<!-- &#45;480335893567919846 -->
<g id="node2" class="node">
<title>&#45;480335893567919846</title>
<polygon fill="none" stroke="black" points="1892.85,-280.05 1838.85,-280.05 1838.85,-244.05 1892.85,-244.05 1892.85,-280.05"/>
</g>
<!-- 4665405965844003252&#45;&gt;&#45;480335893567919846 -->
<g id="edge1" class="edge">
<title>4665405965844003252&#45;&gt;&#45;480335893567919846</title>
<path fill="none" stroke="black" d="M1803.03,-262.05C1811.32,-262.05 1820.19,-262.05 1828.55,-262.05"/>
<polygon fill="black" stroke="black" points="1828.78,-265.55 1838.78,-262.05 1828.78,-258.55 1828.78,-265.55"/>
</g>
<!-- 2107137789810794835 -->
<g id="node3" class="node">
<title>2107137789810794835</title>
<polygon fill="none" stroke="black" points="564.28,-319.05 510.28,-319.05 510.28,-283.05 564.28,-283.05 564.28,-319.05"/>
</g>
<!-- 2107137789810794835&#45;&gt;4665405965844003252 -->
<g id="edge2" class="edge">
<title>2107137789810794835&#45;&gt;4665405965844003252</title>
<path fill="none" stroke="black" d="M564.33,-308.21C601.98,-317.91 673.97,-334.05 736.37,-334.05 736.37,-334.05 736.37,-334.05 1581.65,-334.05 1635.21,-334.05 1691.89,-307.38 1728.06,-286.5"/>
<polygon fill="black" stroke="black" points="1729.97,-289.44 1736.8,-281.34 1726.41,-283.41 1729.97,-289.44"/>
</g>
<!-- 2879286075868496193 -->
<g id="node21" class="node">
<title>2879286075868496193</title>
<ellipse fill="none" stroke="black" cx="637.33" cy="-269.05" rx="37.09" ry="37.09"/>
<text text-anchor="middle" x="637.33" y="-265.35" font-family="Helvetica,sans-Serif" font-size="14.00">coarse</text>
</g>
<!-- 2107137789810794835&#45;&gt;2879286075868496193 -->
<g id="edge21" class="edge">
<title>2107137789810794835&#45;&gt;2879286075868496193</title>
<path fill="none" stroke="black" d="M564.3,-292.56C572.8,-289.78 582.5,-286.61 591.97,-283.52"/>
<polygon fill="black" stroke="black" points="593.27,-286.78 601.69,-280.35 591.1,-280.13 593.27,-286.78"/>
</g>
<!-- 7988825380037426563 -->
<g id="node4" class="node">
<title>7988825380037426563</title>
<polygon fill="none" stroke="black" points="1139.86,-215.05 1085.86,-215.05 1085.86,-179.05 1139.86,-179.05 1139.86,-215.05"/>
</g>
<!-- 7988825380037426563&#45;&gt;4665405965844003252 -->
<g id="edge3" class="edge">
<title>7988825380037426563&#45;&gt;4665405965844003252</title>
<path fill="none" stroke="black" d="M1132.95,-215.17C1144.49,-225.05 1159.99,-236.55 1175.86,-243.05 1232.38,-266.18 1250.88,-262.05 1311.96,-262.05 1311.96,-262.05 1311.96,-262.05 1581.65,-262.05 1629.22,-262.05 1683.68,-262.05 1721.02,-262.05"/>
<polygon fill="black" stroke="black" points="1721.08,-265.55 1731.08,-262.05 1721.08,-258.55 1721.08,-265.55"/>
</g>
<!-- &#45;880610209753771215 -->
<g id="node32" class="node">
<title>&#45;880610209753771215</title>
<ellipse fill="none" stroke="black" cx="1212.91" cy="-197.05" rx="37.09" ry="37.09"/>
<text text-anchor="middle" x="1212.91" y="-193.35" font-family="Helvetica,sans-Serif" font-size="14.00">coarse</text>
</g>
<!-- 7988825380037426563&#45;&gt;&#45;880610209753771215 -->
<g id="edge34" class="edge">
<title>7988825380037426563&#45;&gt;&#45;880610209753771215</title>
<path fill="none" stroke="black" d="M1139.88,-197.05C1147.79,-197.05 1156.73,-197.05 1165.56,-197.05"/>
<polygon fill="black" stroke="black" points="1165.8,-200.55 1175.8,-197.05 1165.8,-193.55 1165.8,-200.55"/>
</g>
<!-- &#45;8892955797150833993 -->
<g id="node5" class="node">
<title>&#45;8892955797150833993</title>
<polygon fill="none" stroke="black" points="1695.35,-225.05 1641.35,-225.05 1641.35,-189.05 1695.35,-189.05 1695.35,-225.05"/>
</g>
<!-- &#45;8892955797150833993&#45;&gt;4665405965844003252 -->
<g id="edge4" class="edge">
<title>&#45;8892955797150833993&#45;&gt;4665405965844003252</title>
<path fill="none" stroke="black" d="M1695.53,-221.93C1705.05,-227.34 1716.04,-233.59 1726.47,-239.52"/>
<polygon fill="black" stroke="black" points="1725.01,-242.72 1735.44,-244.61 1728.47,-236.63 1725.01,-242.72"/>
</g>
<!-- 5730559694089700947 -->
<g id="node6" class="node">
<title>5730559694089700947</title>
<ellipse fill="none" stroke="black" cx="437.23" cy="-301.05" rx="24.9" ry="24.9"/>
<text text-anchor="middle" x="437.23" y="-297.35" font-family="Helvetica,sans-Serif" font-size="14.00">sub</text>
</g>
<!-- 5730559694089700947&#45;&gt;2107137789810794835 -->
<g id="edge5" class="edge">
<title>5730559694089700947&#45;&gt;2107137789810794835</title>
<path fill="none" stroke="black" d="M461.97,-301.05C473.3,-301.05 487.12,-301.05 499.75,-301.05"/>
<polygon fill="black" stroke="black" points="500.01,-304.55 510.01,-301.05 500.01,-297.55 500.01,-304.55"/>
</g>
<!-- &#45;3233629326255458016 -->
<g id="node7" class="node">
<title>&#45;3233629326255458016</title>
<polygon fill="none" stroke="black" points="364.19,-349.05 310.19,-349.05 310.19,-313.05 364.19,-313.05 364.19,-349.05"/>
</g>
<!-- &#45;3233629326255458016&#45;&gt;5730559694089700947 -->
<g id="edge6" class="edge">
<title>&#45;3233629326255458016&#45;&gt;5730559694089700947</title>
<path fill="none" stroke="black" d="M364.2,-323.09C376.29,-319.39 390.79,-314.95 403.6,-311.03"/>
<polygon fill="black" stroke="black" points="404.9,-314.29 413.44,-308.02 402.85,-307.6 404.9,-314.29"/>
</g>
<!-- &#45;9194584017326441959 -->
<g id="node8" class="node">
<title>&#45;9194584017326441959</title>
<polygon fill="none" stroke="black" points="364.19,-289.05 310.19,-289.05 310.19,-253.05 364.19,-253.05 364.19,-289.05"/>
</g>
<!-- &#45;9194584017326441959&#45;&gt;5730559694089700947 -->
<g id="edge7" class="edge">
<title>&#45;9194584017326441959&#45;&gt;5730559694089700947</title>
<path fill="none" stroke="black" d="M364.2,-279.01C376.29,-282.71 390.79,-287.14 403.6,-291.06"/>
<polygon fill="black" stroke="black" points="402.85,-294.49 413.44,-294.07 404.9,-287.8 402.85,-294.49"/>
</g>
<!-- 107803483282515806 -->
<g id="node9" class="node">
<title>107803483282515806</title>
<ellipse fill="none" stroke="black" cx="237.14" cy="-338.05" rx="25.2" ry="25.2"/>
<text text-anchor="middle" x="237.14" y="-334.35" font-family="Helvetica,sans-Serif" font-size="14.00">add</text>
</g>
<!-- 107803483282515806&#45;&gt;&#45;3233629326255458016 -->
<g id="edge8" class="edge">
<title>107803483282515806&#45;&gt;&#45;3233629326255458016</title>
<path fill="none" stroke="black" d="M262.63,-336.3C273.88,-335.49 287.46,-334.53 299.88,-333.64"/>
<polygon fill="black" stroke="black" points="300.23,-337.12 309.95,-332.92 299.73,-330.14 300.23,-337.12"/>
</g>
<!-- &#45;847269783361144326 -->
<g id="node10" class="node">
<title>&#45;847269783361144326</title>
<polygon fill="#8888cc" stroke="black" points="164.09,-386.05 110.09,-386.05 110.09,-350.05 164.09,-350.05 164.09,-386.05"/>
</g>
<!-- &#45;847269783361144326&#45;&gt;107803483282515806 -->
<g id="edge9" class="edge">
<title>&#45;847269783361144326&#45;&gt;107803483282515806</title>
<path fill="none" stroke="black" d="M164.11,-360.09C176.02,-356.44 190.27,-352.08 202.94,-348.21"/>
<polygon fill="black" stroke="black" points="204.15,-351.5 212.69,-345.22 202.1,-344.8 204.15,-351.5"/>
</g>
<!-- &#45;7509092152610895758 -->
<g id="node11" class="node">
<title>&#45;7509092152610895758</title>
<polygon fill="none" stroke="black" points="164.09,-326.05 110.09,-326.05 110.09,-290.05 164.09,-290.05 164.09,-326.05"/>
</g>
<!-- &#45;7509092152610895758&#45;&gt;107803483282515806 -->
<g id="edge10" class="edge">
<title>&#45;7509092152610895758&#45;&gt;107803483282515806</title>
<path fill="none" stroke="black" d="M164.11,-316.01C176.02,-319.65 190.27,-324.01 202.94,-327.89"/>
<polygon fill="black" stroke="black" points="202.1,-331.29 212.69,-330.87 204.15,-324.6 202.1,-331.29"/>
</g>
<!-- &#45;2733733981162604196 -->
<g id="node12" class="node">
<title>&#45;2733733981162604196</title>
<ellipse fill="none" stroke="black" cx="37.05" cy="-295.05" rx="37.09" ry="37.09"/>
<text text-anchor="middle" x="37.05" y="-291.35" font-family="Helvetica,sans-Serif" font-size="14.00">coarse</text>
</g>
<!-- &#45;2733733981162604196&#45;&gt;&#45;7509092152610895758 -->
<g id="edge11" class="edge">
<title>&#45;2733733981162604196&#45;&gt;&#45;7509092152610895758</title>
<path fill="none" stroke="black" d="M74,-299.81C82.47,-300.94 91.5,-302.13 99.98,-303.26"/>
<polygon fill="black" stroke="black" points="99.6,-306.74 109.97,-304.58 100.52,-299.8 99.6,-306.74"/>
</g>
<!-- &#45;7935966111232340747 -->
<g id="node13" class="node">
<title>&#45;7935966111232340747</title>
<ellipse fill="none" stroke="black" cx="37.05" cy="-375.05" rx="24.9" ry="24.9"/>
<text text-anchor="middle" x="37.05" y="-371.35" font-family="Helvetica,sans-Serif" font-size="14.00">fine</text>
</g>
<!-- &#45;7935966111232340747&#45;&gt;&#45;847269783361144326 -->
<g id="edge12" class="edge">
<title>&#45;7935966111232340747&#45;&gt;&#45;847269783361144326</title>
<path fill="none" stroke="black" d="M61.78,-373.35C73.12,-372.54 86.93,-371.56 99.57,-370.65"/>
<polygon fill="black" stroke="black" points="100.09,-374.13 109.82,-369.92 99.59,-367.14 100.09,-374.13"/>
</g>
<!-- 8273519182972091804 -->
<g id="node14" class="node">
<title>8273519182972091804</title>
<ellipse fill="none" stroke="black" cx="237.14" cy="-258.05" rx="37.09" ry="37.09"/>
<text text-anchor="middle" x="237.14" y="-254.35" font-family="Helvetica,sans-Serif" font-size="14.00">coarse</text>
</g>
<!-- 8273519182972091804&#45;&gt;&#45;9194584017326441959 -->
<g id="edge13" class="edge">
<title>8273519182972091804&#45;&gt;&#45;9194584017326441959</title>
<path fill="none" stroke="black" d="M274.09,-262.81C282.56,-263.94 291.59,-265.13 300.07,-266.26"/>
<polygon fill="black" stroke="black" points="299.69,-269.74 310.06,-267.58 300.61,-262.8 299.69,-269.74"/>
</g>
<!-- 3006397328553112911 -->
<g id="node15" class="node">
<title>3006397328553112911</title>
<ellipse fill="none" stroke="black" cx="1025.16" cy="-195.05" rx="24.9" ry="24.9"/>
<text text-anchor="middle" x="1025.16" y="-191.35" font-family="Helvetica,sans-Serif" font-size="14.00">sub</text>
</g>
<!-- 3006397328553112911&#45;&gt;7988825380037426563 -->
<g id="edge14" class="edge">
<title>3006397328553112911&#45;&gt;7988825380037426563</title>
<path fill="none" stroke="black" d="M1050.04,-195.6C1057.92,-195.79 1066.89,-196 1075.49,-196.2"/>
<polygon fill="black" stroke="black" points="1075.64,-199.7 1085.71,-196.44 1075.8,-192.7 1075.64,-199.7"/>
</g>
<!-- 6021126681340602879 -->
<g id="node16" class="node">
<title>6021126681340602879</title>
<polygon fill="none" stroke="black" points="964.47,-151.05 910.47,-151.05 910.47,-115.05 964.47,-115.05 964.47,-151.05"/>
</g>
<!-- 6021126681340602879&#45;&gt;3006397328553112911 -->
<g id="edge15" class="edge">
<title>6021126681340602879&#45;&gt;3006397328553112911</title>
<path fill="none" stroke="black" d="M963.72,-151.31C974.08,-158.81 986.1,-167.51 996.69,-175.17"/>
<polygon fill="black" stroke="black" points="994.65,-178.01 1004.81,-181.04 998.76,-172.34 994.65,-178.01"/>
</g>
<!-- 4944538932163491415 -->
<g id="node17" class="node">
<title>4944538932163491415</title>
<polygon fill="none" stroke="black" points="964.47,-213.05 910.47,-213.05 910.47,-177.05 964.47,-177.05 964.47,-213.05"/>
</g>
<!-- 4944538932163491415&#45;&gt;3006397328553112911 -->
<g id="edge16" class="edge">
<title>4944538932163491415&#45;&gt;3006397328553112911</title>
<path fill="none" stroke="black" d="M964.64,-195.05C972.69,-195.05 981.67,-195.05 990.17,-195.05"/>
<polygon fill="black" stroke="black" points="990.19,-198.55 1000.19,-195.05 990.19,-191.55 990.19,-198.55"/>
</g>
<!-- &#45;5396420722050110548 -->
<g id="node18" class="node">
<title>&#45;5396420722050110548</title>
<ellipse fill="none" stroke="black" cx="837.42" cy="-195.05" rx="25.2" ry="25.2"/>
<text text-anchor="middle" x="837.42" y="-191.35" font-family="Helvetica,sans-Serif" font-size="14.00">add</text>
</g>
<!-- &#45;5396420722050110548&#45;&gt;4944538932163491415 -->
<g id="edge17" class="edge">
<title>&#45;5396420722050110548&#45;&gt;4944538932163491415</title>
<path fill="none" stroke="black" d="M862.91,-195.05C874.16,-195.05 887.74,-195.05 900.16,-195.05"/>
<polygon fill="black" stroke="black" points="900.23,-198.55 910.23,-195.05 900.23,-191.55 900.23,-198.55"/>
</g>
<!-- &#45;4289926029255026122 -->
<g id="node19" class="node">
<title>&#45;4289926029255026122</title>
<polygon fill="none" stroke="black" points="764.37,-274.05 710.37,-274.05 710.37,-238.05 764.37,-238.05 764.37,-274.05"/>
</g>
<!-- &#45;4289926029255026122&#45;&gt;&#45;5396420722050110548 -->
<g id="edge18" class="edge">
<title>&#45;4289926029255026122&#45;&gt;&#45;5396420722050110548</title>
<path fill="none" stroke="black" d="M764.39,-239.86C777.51,-231.7 793.48,-221.76 807.05,-213.32"/>
<polygon fill="black" stroke="black" points="808.92,-216.28 815.56,-208.03 805.22,-210.34 808.92,-216.28"/>
</g>
<!-- &#45;2645114923571996425 -->
<g id="node20" class="node">
<title>&#45;2645114923571996425</title>
<polygon fill="#8888cc" stroke="black" points="764.37,-209.05 710.37,-209.05 710.37,-173.05 764.37,-173.05 764.37,-209.05"/>
</g>
<!-- &#45;2645114923571996425&#45;&gt;&#45;5396420722050110548 -->
<g id="edge19" class="edge">
<title>&#45;2645114923571996425&#45;&gt;&#45;5396420722050110548</title>
<path fill="none" stroke="black" d="M764.39,-192.11C775.8,-192.57 789.36,-193.13 801.62,-193.63"/>
<polygon fill="black" stroke="black" points="801.84,-197.14 811.97,-194.05 802.12,-190.14 801.84,-197.14"/>
</g>
<!-- 2879286075868496193&#45;&gt;&#45;4289926029255026122 -->
<g id="edge20" class="edge">
<title>2879286075868496193&#45;&gt;&#45;4289926029255026122</title>
<path fill="none" stroke="black" d="M674.28,-264.28C682.75,-263.16 691.78,-261.96 700.26,-260.84"/>
<polygon fill="black" stroke="black" points="700.8,-264.29 710.25,-259.51 699.88,-257.36 700.8,-264.29"/>
</g>
<!-- 124870240802090109 -->
<g id="node22" class="node">
<title>124870240802090109</title>
<ellipse fill="none" stroke="black" cx="437.23" cy="-109.05" rx="37.09" ry="37.09"/>
<text text-anchor="middle" x="437.23" y="-105.35" font-family="Helvetica,sans-Serif" font-size="14.00">coarse</text>
</g>
<!-- 3235551860454081017 -->
<g id="node23" class="node">
<title>3235551860454081017</title>
<polygon fill="none" stroke="black" points="564.28,-127.05 510.28,-127.05 510.28,-91.05 564.28,-91.05 564.28,-127.05"/>
</g>
<!-- 124870240802090109&#45;&gt;3235551860454081017 -->
<g id="edge22" class="edge">
<title>124870240802090109&#45;&gt;3235551860454081017</title>
<path fill="none" stroke="black" d="M474.46,-109.05C482.75,-109.05 491.56,-109.05 499.85,-109.05"/>
<polygon fill="black" stroke="black" points="500,-112.55 510,-109.05 500,-105.55 500,-112.55"/>
</g>
<!-- &#45;202645358226921566 -->
<g id="node24" class="node">
<title>&#45;202645358226921566</title>
<ellipse fill="none" stroke="black" cx="637.33" cy="-189.05" rx="24.9" ry="24.9"/>
<text text-anchor="middle" x="637.33" y="-185.35" font-family="Helvetica,sans-Serif" font-size="14.00">fine</text>
</g>
<!-- 3235551860454081017&#45;&gt;&#45;202645358226921566 -->
<g id="edge24" class="edge">
<title>3235551860454081017&#45;&gt;&#45;202645358226921566</title>
<path fill="none" stroke="black" d="M560.53,-127.2C575.12,-139.1 594.27,-154.73 609.67,-167.29"/>
<polygon fill="black" stroke="black" points="607.83,-170.31 617.79,-173.92 612.25,-164.88 607.83,-170.31"/>
</g>
<!-- 5123216746215960038 -->
<g id="node25" class="node">
<title>5123216746215960038</title>
<ellipse fill="none" stroke="black" cx="637.33" cy="-109.05" rx="37.09" ry="37.09"/>
<text text-anchor="middle" x="637.33" y="-105.35" font-family="Helvetica,sans-Serif" font-size="14.00">coarse</text>
</g>
<!-- 3235551860454081017&#45;&gt;5123216746215960038 -->
<g id="edge26" class="edge">
<title>3235551860454081017&#45;&gt;5123216746215960038</title>
<path fill="none" stroke="black" d="M564.3,-109.05C572.21,-109.05 581.15,-109.05 589.98,-109.05"/>
<polygon fill="black" stroke="black" points="590.22,-112.55 600.22,-109.05 590.22,-105.55 590.22,-112.55"/>
</g>
<!-- &#45;1660373762908894823 -->
<g id="node33" class="node">
<title>&#45;1660373762908894823</title>
<ellipse fill="none" stroke="black" cx="837.42" cy="-44.05" rx="37.09" ry="37.09"/>
<text text-anchor="middle" x="837.42" y="-40.35" font-family="Helvetica,sans-Serif" font-size="14.00">coarse</text>
</g>
<!-- 3235551860454081017&#45;&gt;&#45;1660373762908894823 -->
<g id="edge36" class="edge">
<title>3235551860454081017&#45;&gt;&#45;1660373762908894823</title>
<path fill="none" stroke="black" d="M556.7,-91.04C568.24,-80.94 583.97,-69.17 600.28,-63.05 662.87,-39.54 741.2,-38.22 790.03,-40.4"/>
<polygon fill="black" stroke="black" points="790.12,-43.91 800.29,-40.92 790.48,-36.92 790.12,-43.91"/>
</g>
<!-- &#45;202645358226921566&#45;&gt;&#45;2645114923571996425 -->
<g id="edge23" class="edge">
<title>&#45;202645358226921566&#45;&gt;&#45;2645114923571996425</title>
<path fill="none" stroke="black" d="M662.06,-189.53C673.4,-189.76 687.21,-190.04 699.85,-190.3"/>
<polygon fill="black" stroke="black" points="700.03,-193.81 710.1,-190.51 700.17,-186.81 700.03,-193.81"/>
</g>
<!-- 5123216746215960038&#45;&gt;6021126681340602879 -->
<g id="edge25" class="edge">
<title>5123216746215960038&#45;&gt;6021126681340602879</title>
<path fill="none" stroke="black" d="M674.29,-111.94C731.59,-116.55 842.98,-125.52 900.36,-130.14"/>
<polygon fill="black" stroke="black" points="900.18,-133.64 910.43,-130.95 900.74,-126.66 900.18,-133.64"/>
</g>
<!-- &#45;9113685693858572464 -->
<g id="node26" class="node">
<title>&#45;9113685693858572464</title>
<ellipse fill="none" stroke="black" cx="1580.65" cy="-166.05" rx="24.9" ry="24.9"/>
<text text-anchor="middle" x="1580.65" y="-162.35" font-family="Helvetica,sans-Serif" font-size="14.00">sub</text>
</g>
<!-- &#45;9113685693858572464&#45;&gt;&#45;8892955797150833993 -->
<g id="edge27" class="edge">
<title>&#45;9113685693858572464&#45;&gt;&#45;8892955797150833993</title>
<path fill="none" stroke="black" d="M1603.28,-176.39C1612,-180.56 1622.28,-185.48 1632.03,-190.15"/>
<polygon fill="black" stroke="black" points="1630.61,-193.35 1641.14,-194.51 1633.63,-187.04 1630.61,-193.35"/>
</g>
<!-- &#45;4297003116008200272 -->
<g id="node27" class="node">
<title>&#45;4297003116008200272</title>
<polygon fill="none" stroke="black" points="1519.96,-184.05 1465.96,-184.05 1465.96,-148.05 1519.96,-148.05 1519.96,-184.05"/>
</g>
<!-- &#45;4297003116008200272&#45;&gt;&#45;9113685693858572464 -->
<g id="edge28" class="edge">
<title>&#45;4297003116008200272&#45;&gt;&#45;9113685693858572464</title>
<path fill="none" stroke="black" d="M1520.13,-166.05C1528.18,-166.05 1537.16,-166.05 1545.65,-166.05"/>
<polygon fill="black" stroke="black" points="1545.68,-169.55 1555.68,-166.05 1545.68,-162.55 1545.68,-169.55"/>
</g>
<!-- &#45;6209131145144951377 -->
<g id="node28" class="node">
<title>&#45;6209131145144951377</title>
<polygon fill="none" stroke="black" points="1429.96,-91.05 1375.96,-91.05 1375.96,-55.05 1429.96,-55.05 1429.96,-91.05"/>
</g>
<!-- &#45;6209131145144951377&#45;&gt;&#45;9113685693858572464 -->
<g id="edge29" class="edge">
<title>&#45;6209131145144951377&#45;&gt;&#45;9113685693858572464</title>
<path fill="none" stroke="black" d="M1430.26,-86.97C1462.2,-103.88 1515.95,-132.33 1549.52,-150.1"/>
<polygon fill="black" stroke="black" points="1547.95,-153.22 1558.42,-154.81 1551.22,-147.04 1547.95,-153.22"/>
</g>
<!-- &#45;2755444641162295907 -->
<g id="node29" class="node">
<title>&#45;2755444641162295907</title>
<ellipse fill="none" stroke="black" cx="1402.96" cy="-166.05" rx="25.2" ry="25.2"/>
<text text-anchor="middle" x="1402.96" y="-162.35" font-family="Helvetica,sans-Serif" font-size="14.00">add</text>
</g>
<!-- &#45;2755444641162295907&#45;&gt;&#45;4297003116008200272 -->
<g id="edge30" class="edge">
<title>&#45;2755444641162295907&#45;&gt;&#45;4297003116008200272</title>
<path fill="none" stroke="black" d="M1428.47,-166.05C1436.89,-166.05 1446.51,-166.05 1455.67,-166.05"/>
<polygon fill="black" stroke="black" points="1455.73,-169.55 1465.73,-166.05 1455.73,-162.55 1455.73,-169.55"/>
</g>
<!-- &#45;3222813354538609816 -->
<g id="node30" class="node">
<title>&#45;3222813354538609816</title>
<polygon fill="none" stroke="black" points="1339.96,-202.05 1285.96,-202.05 1285.96,-166.05 1339.96,-166.05 1339.96,-202.05"/>
</g>
<!-- &#45;3222813354538609816&#45;&gt;&#45;2755444641162295907 -->
<g id="edge31" class="edge">
<title>&#45;3222813354538609816&#45;&gt;&#45;2755444641162295907</title>
<path fill="none" stroke="black" d="M1340.36,-178.65C1349.04,-176.87 1358.82,-174.87 1367.98,-173"/>
<polygon fill="black" stroke="black" points="1368.88,-176.39 1377.97,-170.95 1367.47,-169.53 1368.88,-176.39"/>
</g>
<!-- 403770086119180293 -->
<g id="node31" class="node">
<title>403770086119180293</title>
<polygon fill="#8888cc" stroke="black" points="1339.96,-141.05 1285.96,-141.05 1285.96,-105.05 1339.96,-105.05 1339.96,-141.05"/>
</g>
<!-- 403770086119180293&#45;&gt;&#45;2755444641162295907 -->
<g id="edge32" class="edge">
<title>403770086119180293&#45;&gt;&#45;2755444641162295907</title>
<path fill="none" stroke="black" d="M1340.36,-135.95C1349.87,-140.6 1360.7,-145.89 1370.6,-150.72"/>
<polygon fill="black" stroke="black" points="1369.21,-153.94 1379.73,-155.19 1372.28,-147.65 1369.21,-153.94"/>
</g>
<!-- &#45;880610209753771215&#45;&gt;&#45;3222813354538609816 -->
<g id="edge33" class="edge">
<title>&#45;880610209753771215&#45;&gt;&#45;3222813354538609816</title>
<path fill="none" stroke="black" d="M1249.86,-192.28C1258.33,-191.16 1267.36,-189.96 1275.84,-188.84"/>
<polygon fill="black" stroke="black" points="1276.38,-192.29 1285.83,-187.51 1275.46,-185.36 1276.38,-192.29"/>
</g>
<!-- 7465016472166776702 -->
<g id="node34" class="node">
<title>7465016472166776702</title>
<polygon fill="none" stroke="black" points="1139.86,-62.05 1085.86,-62.05 1085.86,-26.05 1139.86,-26.05 1139.86,-62.05"/>
</g>
<!-- &#45;1660373762908894823&#45;&gt;7465016472166776702 -->
<g id="edge35" class="edge">
<title>&#45;1660373762908894823&#45;&gt;7465016472166776702</title>
<path fill="none" stroke="black" d="M874.73,-44.05C927.06,-44.05 1023.12,-44.05 1075.48,-44.05"/>
<polygon fill="black" stroke="black" points="1075.65,-47.55 1085.65,-44.05 1075.65,-40.55 1075.65,-47.55"/>
</g>
<!-- 5687064528918474297 -->
<g id="node35" class="node">
<title>5687064528918474297</title>
<ellipse fill="none" stroke="black" cx="1212.91" cy="-117.05" rx="24.9" ry="24.9"/>
<text text-anchor="middle" x="1212.91" y="-113.35" font-family="Helvetica,sans-Serif" font-size="14.00">fine</text>
</g>
<!-- 7465016472166776702&#45;&gt;5687064528918474297 -->
<g id="edge38" class="edge">
<title>7465016472166776702&#45;&gt;5687064528918474297</title>
<path fill="none" stroke="black" d="M1138.1,-62.09C1152.13,-72.54 1169.84,-85.72 1184.39,-96.56"/>
<polygon fill="black" stroke="black" points="1182.43,-99.47 1192.55,-102.63 1186.62,-93.85 1182.43,-99.47"/>
</g>
<!-- &#45;6710444979727017247 -->
<g id="node36" class="node">
<title>&#45;6710444979727017247</title>
<ellipse fill="none" stroke="black" cx="1212.91" cy="-37.05" rx="37.09" ry="37.09"/>
<text text-anchor="middle" x="1212.91" y="-33.35" font-family="Helvetica,sans-Serif" font-size="14.00">coarse</text>
</g>
<!-- 7465016472166776702&#45;&gt;&#45;6710444979727017247 -->
<g id="edge40" class="edge">
<title>7465016472166776702&#45;&gt;&#45;6710444979727017247</title>
<path fill="none" stroke="black" d="M1139.88,-42.19C1147.79,-41.62 1156.73,-40.99 1165.56,-40.36"/>
<polygon fill="black" stroke="black" points="1166.08,-43.83 1175.8,-39.62 1165.58,-36.85 1166.08,-43.83"/>
</g>
<!-- 5687064528918474297&#45;&gt;403770086119180293 -->
<g id="edge37" class="edge">
<title>5687064528918474297&#45;&gt;403770086119180293</title>
<path fill="none" stroke="black" d="M1237.64,-118.5C1248.98,-119.19 1262.8,-120.04 1275.43,-120.81"/>
<polygon fill="black" stroke="black" points="1275.49,-124.32 1285.68,-121.44 1275.91,-117.33 1275.49,-124.32"/>
</g>
<!-- &#45;6710444979727017247&#45;&gt;&#45;6209131145144951377 -->
<g id="edge39" class="edge">
<title>&#45;6710444979727017247&#45;&gt;&#45;6209131145144951377</title>
<path fill="none" stroke="black" d="M1249.72,-43.9C1282.99,-50.27 1332.29,-59.71 1365.7,-66.11"/>
<polygon fill="black" stroke="black" points="1365.47,-69.63 1375.95,-68.07 1366.79,-62.75 1365.47,-69.63"/>
</g>
</g>
</svg>
