<?xml version="1.0" encoding="utf-8" standalone="no"?>
<!DOCTYPE svg PUBLIC "-//W3C//DTD SVG 1.1//EN"
  "http://www.w3.org/Graphics/SVG/1.1/DTD/svg11.dtd">
<svg xmlns:xlink="http://www.w3.org/1999/xlink" width="408.969156pt" height="342.012464pt" viewBox="0 0 408.969156 342.012464" xmlns="http://www.w3.org/2000/svg" version="1.1">
 <metadata>
  <rdf:RDF xmlns:dc="http://purl.org/dc/elements/1.1/" xmlns:cc="http://creativecommons.org/ns#" xmlns:rdf="http://www.w3.org/1999/02/22-rdf-syntax-ns#">
   <cc:Work>
    <dc:type rdf:resource="http://purl.org/dc/dcmitype/StillImage"/>
    <dc:date>2023-02-02T16:03:59.072336</dc:date>
    <dc:format>image/svg+xml</dc:format>
    <dc:creator>
     <cc:Agent>
      <dc:title>Matplotlib v3.6.1, https://matplotlib.org/</dc:title>
     </cc:Agent>
    </dc:creator>
   </cc:Work>
  </rdf:RDF>
 </metadata>
 <defs>
  <style type="text/css">*{stroke-linejoin: round; stroke-linecap: butt}</style>
 </defs>
 <g id="figure_1">
  <g id="patch_1">
   <path d="M 0 342.012464 
L 408.969156 342.012464 
L 408.969156 0 
L 0 0 
L 0 342.012464 
z
" style="fill: none; opacity: 0"/>
  </g>
  <g id="axes_1">
   <g id="patch_2">
    <path d="M 44.649156 163.805808 
L 220.689156 163.805808 
L 220.689156 40.419808 
L 44.649156 40.419808 
z
" style="fill: #7f7f7f"/>
   </g>
   <g id="matplotlib.axis_1">
    <g id="xtick_1">
     <g id="line2d_1">
      <path d="M 52.650974 163.805808 
L 52.650974 40.419808 
" clip-path="url(#pf846577801)" style="fill: none; stroke: #666666; stroke-width: 0.5"/>
     </g>
    </g>
    <g id="xtick_2">
     <g id="line2d_2">
      <path d="M 105.996429 163.805808 
L 105.996429 40.419808 
" clip-path="url(#pf846577801)" style="fill: none; stroke: #666666; stroke-width: 0.5"/>
     </g>
    </g>
    <g id="xtick_3">
     <g id="line2d_3">
      <path d="M 159.341884 163.805808 
L 159.341884 40.419808 
" clip-path="url(#pf846577801)" style="fill: none; stroke: #666666; stroke-width: 0.5"/>
     </g>
    </g>
    <g id="xtick_4">
     <g id="line2d_4">
      <path d="M 212.687338 163.805808 
L 212.687338 40.419808 
" clip-path="url(#pf846577801)" style="fill: none; stroke: #666666; stroke-width: 0.5"/>
     </g>
    </g>
    <g id="xtick_5">
     <g id="line2d_5">
      <path d="M 79.323702 163.805808 
L 79.323702 40.419808 
" clip-path="url(#pf846577801)" style="fill: none; stroke: #737373; stroke-width: 0.25"/>
     </g>
    </g>
    <g id="xtick_6">
     <g id="line2d_6">
      <path d="M 132.669156 163.805808 
L 132.669156 40.419808 
" clip-path="url(#pf846577801)" style="fill: none; stroke: #737373; stroke-width: 0.25"/>
     </g>
    </g>
    <g id="xtick_7">
     <g id="line2d_7">
      <path d="M 186.014611 163.805808 
L 186.014611 40.419808 
" clip-path="url(#pf846577801)" style="fill: none; stroke: #737373; stroke-width: 0.25"/>
     </g>
    </g>
   </g>
   <g id="matplotlib.axis_2">
    <g id="ytick_1">
     <g id="line2d_8">
      <path d="M 44.649156 158.197354 
L 220.689156 158.197354 
" clip-path="url(#pf846577801)" style="fill: none; stroke: #666666; stroke-width: 0.5"/>
     </g>
     <g id="line2d_9">
      <path d="M 44.649156 158.197354 
" style="fill: none; stroke: #000000; stroke-width: 1.5"/>
      <defs>
       <path id="mfff8940846" d="M 0 0 
L -2.75 0 
" style="stroke: #666666; stroke-width: 0.5"/>
      </defs>
      <g>
       <use xlink:href="#mfff8940846" x="44.649156" y="158.197354" style="stroke: #666666; stroke-width: 0.5"/>
      </g>
     </g>
     <g id="text_1">
      <!-- −0.5 -->
      <g style="fill: #ffffff" transform="translate(22.117031 160.494291) scale(0.088 -0.088)">
       <defs>
        <path id="Cantarell-Regular-2212" d="M 352 1901 
L 3360 1901 
L 3360 2374 
L 352 2374 
L 352 1901 
z
" transform="scale(0.015625)"/>
        <path id="Cantarell-Regular-30" d="M 1952 -64 
C 2944 -64 3558 806 3558 2253 
C 3558 3648 2963 4506 1997 4506 
C 992 4506 371 3629 371 2189 
C 371 787 973 -64 1952 -64 
z
M 1990 390 
C 1325 390 909 1088 909 2253 
C 909 3373 1312 4051 1958 4051 
C 2611 4051 3021 3347 3021 2189 
C 3021 1069 2630 390 1990 390 
z
" transform="scale(0.015625)"/>
        <path id="Cantarell-Regular-2e" d="M 819 -64 
C 1062 -64 1229 109 1229 346 
C 1229 582 1062 755 819 755 
C 576 755 410 582 410 346 
C 410 109 576 -64 819 -64 
z
" transform="scale(0.015625)"/>
        <path id="Cantarell-Regular-35" d="M 1562 -64 
C 2547 -64 3213 499 3213 1370 
C 3213 2202 2611 2726 1613 2726 
C 1421 2726 1222 2707 1037 2669 
L 1101 3987 
L 3002 3987 
L 3002 4442 
L 621 4442 
L 512 2170 
C 800 2234 1171 2278 1453 2278 
C 2208 2278 2669 1926 2669 1325 
C 2669 749 2246 403 1594 403 
C 1210 403 787 512 454 691 
L 301 269 
C 698 58 1114 -64 1562 -64 
z
" transform="scale(0.015625)"/>
       </defs>
       <use xlink:href="#Cantarell-Regular-2212"/>
       <use xlink:href="#Cantarell-Regular-30" x="57.999985"/>
       <use xlink:href="#Cantarell-Regular-2e" x="119.399979"/>
       <use xlink:href="#Cantarell-Regular-35" x="144.999969"/>
      </g>
     </g>
    </g>
    <g id="ytick_2">
     <g id="line2d_10">
      <path d="M 44.649156 123.144513 
L 220.689156 123.144513 
" clip-path="url(#pf846577801)" style="fill: none; stroke: #666666; stroke-width: 0.5"/>
     </g>
     <g id="line2d_11">
      <path d="M 44.649156 123.144513 
" style="fill: none; stroke: #000000; stroke-width: 1.5"/>
      <g>
       <use xlink:href="#mfff8940846" x="44.649156" y="123.144513" style="stroke: #666666; stroke-width: 0.5"/>
      </g>
     </g>
     <g id="text_2">
      <!-- 0 -->
      <g style="fill: #ffffff" transform="translate(34.295406 125.44145) scale(0.088 -0.088)">
       <use xlink:href="#Cantarell-Regular-30"/>
      </g>
     </g>
    </g>
    <g id="ytick_3">
     <g id="line2d_12">
      <path d="M 44.649156 88.091672 
L 220.689156 88.091672 
" clip-path="url(#pf846577801)" style="fill: none; stroke: #666666; stroke-width: 0.5"/>
     </g>
     <g id="line2d_13">
      <path d="M 44.649156 88.091672 
" style="fill: none; stroke: #000000; stroke-width: 1.5"/>
      <g>
       <use xlink:href="#mfff8940846" x="44.649156" y="88.091672" style="stroke: #666666; stroke-width: 0.5"/>
      </g>
     </g>
     <g id="text_3">
      <!-- 0.5 -->
      <g style="fill: #ffffff" transform="translate(27.221031 90.388609) scale(0.088 -0.088)">
       <use xlink:href="#Cantarell-Regular-30"/>
       <use xlink:href="#Cantarell-Regular-2e" x="61.399994"/>
       <use xlink:href="#Cantarell-Regular-35" x="86.999985"/>
      </g>
     </g>
    </g>
    <g id="ytick_4">
     <g id="line2d_14">
      <path d="M 44.649156 53.038831 
L 220.689156 53.038831 
" clip-path="url(#pf846577801)" style="fill: none; stroke: #666666; stroke-width: 0.5"/>
     </g>
     <g id="line2d_15">
      <path d="M 44.649156 53.038831 
" style="fill: none; stroke: #000000; stroke-width: 1.5"/>
      <g>
       <use xlink:href="#mfff8940846" x="44.649156" y="53.038831" style="stroke: #666666; stroke-width: 0.5"/>
      </g>
     </g>
     <g id="text_4">
      <!-- 1 -->
      <g style="fill: #ffffff" transform="translate(35.977031 55.335768) scale(0.088 -0.088)">
       <defs>
        <path id="Cantarell-Regular-31" d="M 1427 -32 
L 1933 -32 
L 1933 4442 
L 1626 4442 
L 45 3622 
L 237 3258 
L 1427 3827 
L 1427 -32 
z
" transform="scale(0.015625)"/>
       </defs>
       <use xlink:href="#Cantarell-Regular-31"/>
      </g>
     </g>
    </g>
    <g id="ytick_5">
     <g id="line2d_16">
      <path d="M 44.649156 140.670933 
L 220.689156 140.670933 
" clip-path="url(#pf846577801)" style="fill: none; stroke: #737373; stroke-width: 0.25"/>
     </g>
    </g>
    <g id="ytick_6">
     <g id="line2d_17">
      <path d="M 44.649156 105.618092 
L 220.689156 105.618092 
" clip-path="url(#pf846577801)" style="fill: none; stroke: #737373; stroke-width: 0.25"/>
     </g>
    </g>
    <g id="ytick_7">
     <g id="line2d_18">
      <path d="M 44.649156 70.565251 
L 220.689156 70.565251 
" clip-path="url(#pf846577801)" style="fill: none; stroke: #737373; stroke-width: 0.25"/>
     </g>
    </g>
    <g id="text_5">
     <!-- q -->
     <g style="fill: #ffffff" transform="translate(15.329687 174.882808) rotate(-90) scale(0.11 -0.11)">
      <defs>
       <path id="Cantarell-Regular-71" d="M 1709 -64 
C 2067 -64 2374 58 2605 275 
L 2605 -1389 
L 3117 -1389 
L 3117 3085 
L 2758 3085 
L 2650 2835 
C 2426 3040 2131 3149 1779 3149 
C 909 3149 333 2496 333 1517 
C 333 570 883 -64 1709 -64 
z
M 2605 2317 
L 2605 736 
C 2432 512 2170 384 1856 384 
C 1242 384 845 864 845 1574 
C 845 2253 1203 2701 1798 2701 
C 2144 2701 2419 2560 2605 2317 
z
" transform="scale(0.015625)"/>
      </defs>
      <use xlink:href="#Cantarell-Regular-71"/>
     </g>
    </g>
   </g>
   <g id="line2d_19">
    <path d="M 52.650974 53.038831 
L 53.290693 53.1419 
L 53.930412 53.479695 
L 54.676751 54.14373 
L 55.52971 55.221544 
L 56.595908 56.984906 
L 57.768726 59.372498 
L 59.261404 62.946586 
L 61.073941 67.863518 
L 61.073941 53.038831 
L 61.180561 53.591928 
L 64.592395 70.684276 
L 67.044651 81.869755 
L 69.177048 90.619717 
L 69.496907 91.847381 
L 69.603527 97.228384 
L 71.309445 104.571308 
L 72.908742 110.50508 
L 74.508039 115.573258 
L 76.000717 119.57596 
L 77.493395 122.930552 
L 77.919874 123.777677 
L 78.026494 135.985022 
L 79.199312 137.483297 
L 80.37213 138.606333 
L 81.438328 139.336078 
L 82.504527 139.818731 
L 83.677345 140.097306 
L 84.850163 140.14514 
L 86.129601 139.972134 
L 86.34284 139.923116 
L 86.34284 148.17461 
L 86.44946 148.058088 
L 88.795097 145.314637 
L 94.765807 137.828965 
L 94.765807 138.96936 
L 94.872427 138.784151 
L 97.111443 135.133833 
L 99.13722 132.236019 
L 101.162997 129.725552 
L 103.082154 127.695025 
L 103.188773 127.591823 
L 103.295393 124.232504 
L 104.894691 122.810019 
L 106.600608 121.596262 
L 108.306525 120.661543 
L 110.012443 119.971421 
L 111.61174 119.517058 
L 111.61174 116.014884 
L 111.71836 116.016559 
L 113.744137 116.168373 
L 116.089773 116.573222 
L 119.181748 117.350565 
L 120.034706 117.595164 
L 120.034706 116.147212 
L 120.141326 116.203285 
L 124.619359 118.434782 
L 128.031194 119.893775 
L 128.457673 120.058347 
L 128.564293 120.62626 
L 131.123169 121.682455 
L 133.788664 122.538861 
L 136.56078 123.19577 
L 136.88064 123.2578 
L 136.987259 124.486934 
L 139.865995 124.774502 
L 143.171209 124.874511 
L 145.303606 124.844526 
L 145.303606 125.662153 
L 145.410226 125.650095 
L 156.072209 124.325 
L 160.870101 123.702133 
L 162.149539 123.572343 
L 162.256159 123.230278 
L 166.840812 122.900421 
L 170.572506 122.769786 
L 170.572506 122.419842 
L 170.679125 122.420177 
L 177.929274 122.556327 
L 178.995472 122.587613 
L 178.995472 122.446314 
L 179.102092 122.451996 
L 193.602389 123.112286 
L 195.841405 123.160839 
L 195.948025 123.284557 
L 208.635785 123.342396 
L 212.687338 123.290101 
L 212.687338 123.290101 
" clip-path="url(#pf846577801)" style="fill: none; stroke: #000000; stroke-width: 0.886227"/>
   </g>
   <g id="patch_3">
    <path d="M 44.649156 40.419808 
L 220.689156 40.419808 
L 220.689156 25.833004 
L 44.649156 25.833004 
z
" style="fill: #333333"/>
   </g>
   <g id="text_6">
    <!-- iteration 1 -->
    <g style="fill: #ffffff" transform="translate(113.274781 35.423344) scale(0.088 -0.088)">
     <defs>
      <path id="Cantarell-Regular-69" d="M 531 0 
L 1043 0 
L 1043 3085 
L 531 3085 
L 531 0 
z
M 794 3808 
C 1024 3808 1158 3942 1158 4173 
C 1158 4403 1024 4538 794 4538 
C 563 4538 429 4403 429 4173 
C 429 3942 563 3808 794 3808 
z
" transform="scale(0.015625)"/>
      <path id="Cantarell-Regular-74" d="M 1587 -32 
C 1798 -32 2010 19 2157 83 
L 2042 454 
C 1946 410 1805 384 1696 384 
C 1376 384 1165 589 1165 896 
L 1165 2656 
L 2010 2656 
L 2010 3085 
L 1165 3085 
L 1165 3987 
L 653 3987 
L 653 3085 
L 237 3085 
L 237 2656 
L 653 2656 
L 653 826 
C 653 314 1024 -32 1587 -32 
z
" transform="scale(0.015625)"/>
      <path id="Cantarell-Regular-65" d="M 1920 -64 
C 2272 -64 2656 19 2931 166 
L 2816 538 
C 2579 422 2278 352 2010 352 
C 1357 352 947 742 870 1402 
L 3021 1402 
C 3034 1498 3046 1722 3046 1843 
C 3046 2618 2534 3149 1773 3149 
C 915 3149 333 2477 333 1530 
C 333 544 941 -64 1920 -64 
z
M 864 1786 
C 909 2387 1216 2714 1734 2714 
C 2259 2714 2566 2374 2566 1786 
L 864 1786 
z
" transform="scale(0.015625)"/>
      <path id="Cantarell-Regular-72" d="M 531 0 
L 1043 0 
L 1043 2202 
C 1242 2470 1555 2630 1901 2630 
C 2022 2630 2138 2611 2240 2573 
L 2368 3046 
C 2234 3091 2099 3117 1958 3117 
C 1587 3117 1242 2938 1011 2637 
L 954 3085 
L 531 3085 
L 531 0 
z
" transform="scale(0.015625)"/>
      <path id="Cantarell-Regular-61" d="M 2438 0 
L 2797 0 
L 2797 2003 
C 2797 2739 2362 3149 1555 3149 
C 1152 3149 717 3040 384 2854 
L 512 2477 
C 832 2618 1152 2688 1453 2688 
C 2003 2688 2285 2458 2285 2003 
L 2285 1798 
C 902 1786 301 1498 301 838 
C 301 288 710 -64 1344 -64 
C 1734 -64 2067 64 2317 288 
L 2438 0 
z
M 2285 691 
C 2093 499 1811 384 1491 384 
C 1082 384 813 589 813 896 
C 813 1280 1248 1440 2285 1446 
L 2285 691 
z
" transform="scale(0.015625)"/>
      <path id="Cantarell-Regular-6f" d="M 1773 -64 
C 2682 -64 3296 595 3296 1581 
C 3296 2534 2726 3149 1850 3149 
C 941 3149 333 2496 333 1510 
C 333 557 896 -64 1773 -64 
z
M 1843 384 
C 1248 384 845 864 845 1574 
C 845 2259 1210 2701 1779 2701 
C 2374 2701 2784 2214 2784 1510 
C 2784 832 2413 384 1843 384 
z
" transform="scale(0.015625)"/>
      <path id="Cantarell-Regular-6e" d="M 2637 0 
L 3149 0 
L 3149 2022 
C 3149 2707 2694 3149 2003 3149 
C 1651 3149 1299 3027 1005 2810 
L 890 3085 
L 531 3085 
L 531 0 
L 1043 0 
L 1043 2413 
C 1280 2598 1562 2701 1862 2701 
C 2362 2701 2637 2419 2637 1920 
L 2637 0 
z
" transform="scale(0.015625)"/>
      <path id="Cantarell-Regular-20" transform="scale(0.015625)"/>
     </defs>
     <use xlink:href="#Cantarell-Regular-69"/>
     <use xlink:href="#Cantarell-Regular-74" x="24.599991"/>
     <use xlink:href="#Cantarell-Regular-65" x="60.699982"/>
     <use xlink:href="#Cantarell-Regular-72" x="113.499969"/>
     <use xlink:href="#Cantarell-Regular-61" x="151.199966"/>
     <use xlink:href="#Cantarell-Regular-74" x="202.399963"/>
     <use xlink:href="#Cantarell-Regular-69" x="238.499954"/>
     <use xlink:href="#Cantarell-Regular-6f" x="263.099945"/>
     <use xlink:href="#Cantarell-Regular-6e" x="319.799942"/>
     <use xlink:href="#Cantarell-Regular-20" x="376.499939"/>
     <use xlink:href="#Cantarell-Regular-31" x="398.499924"/>
    </g>
   </g>
  </g>
  <g id="axes_2">
   <g id="patch_4">
    <path d="M 225.729156 163.805808 
L 401.769156 163.805808 
L 401.769156 40.419808 
L 225.729156 40.419808 
z
" style="fill: #7f7f7f"/>
   </g>
   <g id="matplotlib.axis_3">
    <g id="xtick_8">
     <g id="line2d_20">
      <path d="M 233.730974 163.805808 
L 233.730974 40.419808 
" clip-path="url(#p7d77ef68df)" style="fill: none; stroke: #666666; stroke-width: 0.5; stroke-linecap: square"/>
     </g>
    </g>
    <g id="xtick_9">
     <g id="line2d_21">
      <path d="M 287.076429 163.805808 
L 287.076429 40.419808 
" clip-path="url(#p7d77ef68df)" style="fill: none; stroke: #666666; stroke-width: 0.5; stroke-linecap: square"/>
     </g>
    </g>
    <g id="xtick_10">
     <g id="line2d_22">
      <path d="M 340.421884 163.805808 
L 340.421884 40.419808 
" clip-path="url(#p7d77ef68df)" style="fill: none; stroke: #666666; stroke-width: 0.5; stroke-linecap: square"/>
     </g>
    </g>
    <g id="xtick_11">
     <g id="line2d_23">
      <path d="M 393.767338 163.805808 
L 393.767338 40.419808 
" clip-path="url(#p7d77ef68df)" style="fill: none; stroke: #666666; stroke-width: 0.5; stroke-linecap: square"/>
     </g>
    </g>
    <g id="xtick_12">
     <g id="line2d_24">
      <path d="M 260.403702 163.805808 
L 260.403702 40.419808 
" clip-path="url(#p7d77ef68df)" style="fill: none; stroke: #737373; stroke-width: 0.25; stroke-linecap: square"/>
     </g>
    </g>
    <g id="xtick_13">
     <g id="line2d_25">
      <path d="M 313.749156 163.805808 
L 313.749156 40.419808 
" clip-path="url(#p7d77ef68df)" style="fill: none; stroke: #737373; stroke-width: 0.25; stroke-linecap: square"/>
     </g>
    </g>
    <g id="xtick_14">
     <g id="line2d_26">
      <path d="M 367.094611 163.805808 
L 367.094611 40.419808 
" clip-path="url(#p7d77ef68df)" style="fill: none; stroke: #737373; stroke-width: 0.25; stroke-linecap: square"/>
     </g>
    </g>
   </g>
   <g id="matplotlib.axis_4">
    <g id="ytick_8">
     <g id="line2d_27">
      <path d="M 225.729156 158.197354 
L 401.769156 158.197354 
" clip-path="url(#p7d77ef68df)" style="fill: none; stroke: #666666; stroke-width: 0.5; stroke-linecap: square"/>
     </g>
    </g>
    <g id="ytick_9">
     <g id="line2d_28">
      <path d="M 225.729156 123.144513 
L 401.769156 123.144513 
" clip-path="url(#p7d77ef68df)" style="fill: none; stroke: #666666; stroke-width: 0.5; stroke-linecap: square"/>
     </g>
    </g>
    <g id="ytick_10">
     <g id="line2d_29">
      <path d="M 225.729156 88.091672 
L 401.769156 88.091672 
" clip-path="url(#p7d77ef68df)" style="fill: none; stroke: #666666; stroke-width: 0.5; stroke-linecap: square"/>
     </g>
    </g>
    <g id="ytick_11">
     <g id="line2d_30">
      <path d="M 225.729156 53.038831 
L 401.769156 53.038831 
" clip-path="url(#p7d77ef68df)" style="fill: none; stroke: #666666; stroke-width: 0.5; stroke-linecap: square"/>
     </g>
    </g>
    <g id="ytick_12">
     <g id="line2d_31">
      <path d="M 225.729156 140.670933 
L 401.769156 140.670933 
" clip-path="url(#p7d77ef68df)" style="fill: none; stroke: #737373; stroke-width: 0.25; stroke-linecap: square"/>
     </g>
    </g>
    <g id="ytick_13">
     <g id="line2d_32">
      <path d="M 225.729156 105.618092 
L 401.769156 105.618092 
" clip-path="url(#p7d77ef68df)" style="fill: none; stroke: #737373; stroke-width: 0.25; stroke-linecap: square"/>
     </g>
    </g>
    <g id="ytick_14">
     <g id="line2d_33">
      <path d="M 225.729156 70.565251 
L 401.769156 70.565251 
" clip-path="url(#p7d77ef68df)" style="fill: none; stroke: #737373; stroke-width: 0.25; stroke-linecap: square"/>
     </g>
    </g>
   </g>
   <g id="line2d_34">
    <path d="M 233.730974 53.038831 
L 234.370693 53.1419 
L 235.010412 53.479695 
L 235.756751 54.14373 
L 236.60971 55.221544 
L 237.675908 56.984906 
L 238.848726 59.372498 
L 240.341404 62.946586 
L 242.260561 68.167111 
L 245.352536 77.344323 
L 250.150428 91.529046 
L 252.709304 98.389534 
L 254.94832 103.785679 
L 256.974097 108.123901 
L 258.893254 111.740242 
L 260.812411 114.879237 
L 262.624948 117.419899 
L 264.437485 119.570578 
L 266.143403 121.262661 
L 267.84932 122.658741 
L 269.661857 123.84821 
L 271.474394 124.767783 
L 273.393551 125.484367 
L 275.419328 125.995538 
L 277.658344 126.326259 
L 280.1106 126.459896 
L 282.989336 126.382387 
L 284.268773 126.288196 
L 284.268773 126.58988 
L 284.375393 126.580445 
L 288.320327 126.112829 
L 292.69174 125.452215 
L 292.69174 126.293758 
L 292.79836 126.270067 
L 299.728649 124.843223 
L 301.114706 124.600473 
L 301.114706 125.263465 
L 301.221326 125.23176 
L 304.633161 124.338407 
L 308.151615 123.651594 
L 309.537673 123.440557 
L 309.644293 122.570143 
L 312.416408 122.106356 
L 315.508383 121.823143 
L 317.96064 121.733386 
L 317.96064 119.13145 
L 318.067259 119.143221 
L 321.798953 119.674229 
L 326.383606 120.490492 
L 326.383606 117.928073 
L 326.490226 117.979442 
L 330.00868 119.551845 
L 333.313895 120.784271 
L 335.872771 121.742519 
L 338.111787 122.721519 
L 340.457423 123.497755 
L 342.90968 124.074236 
L 343.229539 124.133791 
L 343.336159 127.180617 
L 345.468555 127.374897 
L 347.920812 127.359841 
L 350.799547 127.108497 
L 351.652506 126.999211 
L 351.652506 130.998228 
L 351.759125 130.949653 
L 360.075472 127.231099 
L 360.075472 129.065312 
L 360.182092 128.983313 
L 362.527728 127.320199 
L 364.873364 125.923388 
L 367.219001 124.780625 
L 368.498439 124.25758 
L 368.605058 122.486124 
L 370.524215 121.637357 
L 372.549992 120.992681 
L 374.682389 120.549786 
L 376.921405 120.298001 
L 376.921405 116.522386 
L 377.028025 116.535099 
L 379.480281 116.945351 
L 382.678876 117.721322 
L 385.344372 118.473986 
L 385.344372 115.60695 
L 385.450991 115.674134 
L 389.076066 117.823993 
L 392.168041 119.402296 
L 393.767338 120.114133 
L 393.767338 120.114133 
" clip-path="url(#p7d77ef68df)" style="fill: none; stroke: #000000; stroke-width: 0.886227"/>
   </g>
   <g id="patch_5">
    <path d="M 225.729156 40.419808 
L 401.769156 40.419808 
L 401.769156 25.833004 
L 225.729156 25.833004 
z
" style="fill: #333333"/>
   </g>
   <g id="text_7">
    <!-- iteration 5 -->
    <g style="fill: #ffffff" transform="translate(293.804781 35.423344) scale(0.088 -0.088)">
     <use xlink:href="#Cantarell-Regular-69"/>
     <use xlink:href="#Cantarell-Regular-74" x="24.599991"/>
     <use xlink:href="#Cantarell-Regular-65" x="60.699982"/>
     <use xlink:href="#Cantarell-Regular-72" x="113.499969"/>
     <use xlink:href="#Cantarell-Regular-61" x="151.199966"/>
     <use xlink:href="#Cantarell-Regular-74" x="202.399963"/>
     <use xlink:href="#Cantarell-Regular-69" x="238.499954"/>
     <use xlink:href="#Cantarell-Regular-6f" x="263.099945"/>
     <use xlink:href="#Cantarell-Regular-6e" x="319.799942"/>
     <use xlink:href="#Cantarell-Regular-20" x="376.499939"/>
     <use xlink:href="#Cantarell-Regular-35" x="398.499924"/>
    </g>
   </g>
  </g>
  <g id="axes_3">
   <g id="patch_6">
    <path d="M 44.649156 306.531808 
L 220.689156 306.531808 
L 220.689156 183.145808 
L 44.649156 183.145808 
z
" style="fill: #7f7f7f"/>
   </g>
   <g id="matplotlib.axis_5">
    <g id="xtick_15">
     <g id="line2d_35">
      <path d="M 52.650974 306.531808 
L 52.650974 183.145808 
" clip-path="url(#pfc713a683b)" style="fill: none; stroke: #666666; stroke-width: 0.5; stroke-linecap: square"/>
     </g>
     <g id="line2d_36">
      <path d="M 52.650974 306.531808 
" style="fill: none; stroke: #000000; stroke-width: 1.5; stroke-linecap: square"/>
      <defs>
       <path id="m4fda10a32a" d="M 0 0 
L 0 2.75 
" style="stroke: #666666; stroke-width: 0.5"/>
      </defs>
      <g>
       <use xlink:href="#m4fda10a32a" x="52.650974" y="306.531808" style="stroke: #666666; stroke-width: 0.5"/>
      </g>
     </g>
     <g id="text_8">
      <!-- 0 -->
      <g style="fill: #ffffff" transform="translate(49.949099 317.985558) scale(0.088 -0.088)">
       <use xlink:href="#Cantarell-Regular-30"/>
      </g>
     </g>
    </g>
    <g id="xtick_16">
     <g id="line2d_37">
      <path d="M 105.996429 306.531808 
L 105.996429 183.145808 
" clip-path="url(#pfc713a683b)" style="fill: none; stroke: #666666; stroke-width: 0.5; stroke-linecap: square"/>
     </g>
     <g id="line2d_38">
      <path d="M 105.996429 306.531808 
" style="fill: none; stroke: #000000; stroke-width: 1.5; stroke-linecap: square"/>
      <g>
       <use xlink:href="#m4fda10a32a" x="105.996429" y="306.531808" style="stroke: #666666; stroke-width: 0.5"/>
      </g>
     </g>
     <g id="text_9">
      <!-- 5 -->
      <g style="fill: #ffffff" transform="translate(103.585366 317.985558) scale(0.088 -0.088)">
       <use xlink:href="#Cantarell-Regular-35"/>
      </g>
     </g>
    </g>
    <g id="xtick_17">
     <g id="line2d_39">
      <path d="M 159.341884 306.531808 
L 159.341884 183.145808 
" clip-path="url(#pfc713a683b)" style="fill: none; stroke: #666666; stroke-width: 0.5; stroke-linecap: square"/>
     </g>
     <g id="line2d_40">
      <path d="M 159.341884 306.531808 
" style="fill: none; stroke: #000000; stroke-width: 1.5; stroke-linecap: square"/>
      <g>
       <use xlink:href="#m4fda10a32a" x="159.341884" y="306.531808" style="stroke: #666666; stroke-width: 0.5"/>
      </g>
     </g>
     <g id="text_10">
      <!-- 10 -->
      <g style="fill: #ffffff" transform="translate(154.778946 317.985558) scale(0.088 -0.088)">
       <use xlink:href="#Cantarell-Regular-31"/>
       <use xlink:href="#Cantarell-Regular-30" x="42.299988"/>
      </g>
     </g>
    </g>
    <g id="xtick_18">
     <g id="line2d_41">
      <path d="M 212.687338 306.531808 
L 212.687338 183.145808 
" clip-path="url(#pfc713a683b)" style="fill: none; stroke: #666666; stroke-width: 0.5; stroke-linecap: square"/>
     </g>
     <g id="line2d_42">
      <path d="M 212.687338 306.531808 
" style="fill: none; stroke: #000000; stroke-width: 1.5; stroke-linecap: square"/>
      <g>
       <use xlink:href="#m4fda10a32a" x="212.687338" y="306.531808" style="stroke: #666666; stroke-width: 0.5"/>
      </g>
     </g>
     <g id="text_11">
      <!-- 15 -->
      <g style="fill: #ffffff" transform="translate(208.415213 317.985558) scale(0.088 -0.088)">
       <use xlink:href="#Cantarell-Regular-31"/>
       <use xlink:href="#Cantarell-Regular-35" x="42.299988"/>
      </g>
     </g>
    </g>
    <g id="xtick_19">
     <g id="line2d_43">
      <path d="M 79.323702 306.531808 
L 79.323702 183.145808 
" clip-path="url(#pfc713a683b)" style="fill: none; stroke: #737373; stroke-width: 0.25; stroke-linecap: square"/>
     </g>
    </g>
    <g id="xtick_20">
     <g id="line2d_44">
      <path d="M 132.669156 306.531808 
L 132.669156 183.145808 
" clip-path="url(#pfc713a683b)" style="fill: none; stroke: #737373; stroke-width: 0.25; stroke-linecap: square"/>
     </g>
    </g>
    <g id="xtick_21">
     <g id="line2d_45">
      <path d="M 186.014611 306.531808 
L 186.014611 183.145808 
" clip-path="url(#pfc713a683b)" style="fill: none; stroke: #737373; stroke-width: 0.25; stroke-linecap: square"/>
     </g>
    </g>
   </g>
   <g id="matplotlib.axis_6">
    <g id="ytick_15">
     <g id="line2d_46">
      <path d="M 44.649156 300.923354 
L 220.689156 300.923354 
" clip-path="url(#pfc713a683b)" style="fill: none; stroke: #666666; stroke-width: 0.5; stroke-linecap: square"/>
     </g>
     <g id="line2d_47">
      <path d="M 44.649156 300.923354 
" style="fill: none; stroke: #000000; stroke-width: 1.5; stroke-linecap: square"/>
      <g>
       <use xlink:href="#mfff8940846" x="44.649156" y="300.923354" style="stroke: #666666; stroke-width: 0.5"/>
      </g>
     </g>
     <g id="text_12">
      <!-- −0.5 -->
      <g style="fill: #ffffff" transform="translate(22.117031 303.220291) scale(0.088 -0.088)">
       <use xlink:href="#Cantarell-Regular-2212"/>
       <use xlink:href="#Cantarell-Regular-30" x="57.999985"/>
       <use xlink:href="#Cantarell-Regular-2e" x="119.399979"/>
       <use xlink:href="#Cantarell-Regular-35" x="144.999969"/>
      </g>
     </g>
    </g>
    <g id="ytick_16">
     <g id="line2d_48">
      <path d="M 44.649156 265.870513 
L 220.689156 265.870513 
" clip-path="url(#pfc713a683b)" style="fill: none; stroke: #666666; stroke-width: 0.5; stroke-linecap: square"/>
     </g>
     <g id="line2d_49">
      <path d="M 44.649156 265.870513 
" style="fill: none; stroke: #000000; stroke-width: 1.5; stroke-linecap: square"/>
      <g>
       <use xlink:href="#mfff8940846" x="44.649156" y="265.870513" style="stroke: #666666; stroke-width: 0.5"/>
      </g>
     </g>
     <g id="text_13">
      <!-- 0 -->
      <g style="fill: #ffffff" transform="translate(34.295406 268.16745) scale(0.088 -0.088)">
       <use xlink:href="#Cantarell-Regular-30"/>
      </g>
     </g>
    </g>
    <g id="ytick_17">
     <g id="line2d_50">
      <path d="M 44.649156 230.817672 
L 220.689156 230.817672 
" clip-path="url(#pfc713a683b)" style="fill: none; stroke: #666666; stroke-width: 0.5; stroke-linecap: square"/>
     </g>
     <g id="line2d_51">
      <path d="M 44.649156 230.817672 
" style="fill: none; stroke: #000000; stroke-width: 1.5; stroke-linecap: square"/>
      <g>
       <use xlink:href="#mfff8940846" x="44.649156" y="230.817672" style="stroke: #666666; stroke-width: 0.5"/>
      </g>
     </g>
     <g id="text_14">
      <!-- 0.5 -->
      <g style="fill: #ffffff" transform="translate(27.221031 233.114609) scale(0.088 -0.088)">
       <use xlink:href="#Cantarell-Regular-30"/>
       <use xlink:href="#Cantarell-Regular-2e" x="61.399994"/>
       <use xlink:href="#Cantarell-Regular-35" x="86.999985"/>
      </g>
     </g>
    </g>
    <g id="ytick_18">
     <g id="line2d_52">
      <path d="M 44.649156 195.764831 
L 220.689156 195.764831 
" clip-path="url(#pfc713a683b)" style="fill: none; stroke: #666666; stroke-width: 0.5; stroke-linecap: square"/>
     </g>
     <g id="line2d_53">
      <path d="M 44.649156 195.764831 
" style="fill: none; stroke: #000000; stroke-width: 1.5; stroke-linecap: square"/>
      <g>
       <use xlink:href="#mfff8940846" x="44.649156" y="195.764831" style="stroke: #666666; stroke-width: 0.5"/>
      </g>
     </g>
     <g id="text_15">
      <!-- 1 -->
      <g style="fill: #ffffff" transform="translate(35.977031 198.061768) scale(0.088 -0.088)">
       <use xlink:href="#Cantarell-Regular-31"/>
      </g>
     </g>
    </g>
    <g id="ytick_19">
     <g id="line2d_54">
      <path d="M 44.649156 283.396933 
L 220.689156 283.396933 
" clip-path="url(#pfc713a683b)" style="fill: none; stroke: #737373; stroke-width: 0.25; stroke-linecap: square"/>
     </g>
    </g>
    <g id="ytick_20">
     <g id="line2d_55">
      <path d="M 44.649156 248.344092 
L 220.689156 248.344092 
" clip-path="url(#pfc713a683b)" style="fill: none; stroke: #737373; stroke-width: 0.25; stroke-linecap: square"/>
     </g>
    </g>
    <g id="ytick_21">
     <g id="line2d_56">
      <path d="M 44.649156 213.291251 
L 220.689156 213.291251 
" clip-path="url(#pfc713a683b)" style="fill: none; stroke: #737373; stroke-width: 0.25; stroke-linecap: square"/>
     </g>
    </g>
   </g>
   <g id="line2d_57">
    <path d="M 52.650974 195.764831 
L 53.290693 195.8679 
L 53.930412 196.205695 
L 54.676751 196.86973 
L 55.52971 197.947544 
L 56.595908 199.710906 
L 57.768726 202.098498 
L 59.261404 205.672586 
L 61.180561 210.893111 
L 64.272536 220.070323 
L 69.070428 234.255046 
L 71.629304 241.115534 
L 73.86832 246.511679 
L 75.894097 250.849901 
L 77.813254 254.466242 
L 79.732411 257.605237 
L 81.544948 260.145899 
L 83.357485 262.296578 
L 85.063403 263.988661 
L 86.76932 265.384741 
L 88.581857 266.57421 
L 90.394394 267.493783 
L 92.313551 268.210367 
L 94.339328 268.721538 
L 96.578344 269.04393 
L 99.0306 269.165226 
L 101.909336 269.078694 
L 105.64103 268.727677 
L 112.038219 267.858768 
L 120.247946 266.805053 
L 126.325276 266.260088 
L 132.722466 265.916941 
L 140.292474 265.743004 
L 151.487556 265.732369 
L 187.418439 265.846755 
L 187.418439 265.7619 
L 187.525058 265.762485 
L 212.687338 265.953854 
L 212.687338 265.953854 
" clip-path="url(#pfc713a683b)" style="fill: none; stroke: #000000; stroke-width: 0.886227"/>
   </g>
   <g id="patch_7">
    <path d="M 44.649156 183.145808 
L 220.689156 183.145808 
L 220.689156 168.559004 
L 44.649156 168.559004 
z
" style="fill: #333333"/>
   </g>
   <g id="text_16">
    <!-- iteration 10 -->
    <g style="fill: #ffffff" transform="translate(110.572906 178.149344) scale(0.088 -0.088)">
     <use xlink:href="#Cantarell-Regular-69"/>
     <use xlink:href="#Cantarell-Regular-74" x="24.599991"/>
     <use xlink:href="#Cantarell-Regular-65" x="60.699982"/>
     <use xlink:href="#Cantarell-Regular-72" x="113.499969"/>
     <use xlink:href="#Cantarell-Regular-61" x="151.199966"/>
     <use xlink:href="#Cantarell-Regular-74" x="202.399963"/>
     <use xlink:href="#Cantarell-Regular-69" x="238.499954"/>
     <use xlink:href="#Cantarell-Regular-6f" x="263.099945"/>
     <use xlink:href="#Cantarell-Regular-6e" x="319.799942"/>
     <use xlink:href="#Cantarell-Regular-20" x="376.499939"/>
     <use xlink:href="#Cantarell-Regular-31" x="398.499924"/>
     <use xlink:href="#Cantarell-Regular-30" x="440.799911"/>
    </g>
   </g>
  </g>
  <g id="axes_4">
   <g id="patch_8">
    <path d="M 225.729156 306.531808 
L 401.769156 306.531808 
L 401.769156 183.145808 
L 225.729156 183.145808 
z
" style="fill: #7f7f7f"/>
   </g>
   <g id="matplotlib.axis_7">
    <g id="xtick_22">
     <g id="line2d_58">
      <path d="M 233.730974 306.531808 
L 233.730974 183.145808 
" clip-path="url(#pf540465e4f)" style="fill: none; stroke: #666666; stroke-width: 0.5; stroke-linecap: square"/>
     </g>
     <g id="line2d_59">
      <path d="M 233.730974 306.531808 
" style="fill: none; stroke: #000000; stroke-width: 1.5; stroke-linecap: square"/>
      <g>
       <use xlink:href="#m4fda10a32a" x="233.730974" y="306.531808" style="stroke: #666666; stroke-width: 0.5"/>
      </g>
     </g>
     <g id="text_17">
      <!-- 0 -->
      <g style="fill: #ffffff" transform="translate(231.029099 317.985558) scale(0.088 -0.088)">
       <use xlink:href="#Cantarell-Regular-30"/>
      </g>
     </g>
    </g>
    <g id="xtick_23">
     <g id="line2d_60">
      <path d="M 287.076429 306.531808 
L 287.076429 183.145808 
" clip-path="url(#pf540465e4f)" style="fill: none; stroke: #666666; stroke-width: 0.5; stroke-linecap: square"/>
     </g>
     <g id="line2d_61">
      <path d="M 287.076429 306.531808 
" style="fill: none; stroke: #000000; stroke-width: 1.5; stroke-linecap: square"/>
      <g>
       <use xlink:href="#m4fda10a32a" x="287.076429" y="306.531808" style="stroke: #666666; stroke-width: 0.5"/>
      </g>
     </g>
     <g id="text_18">
      <!-- 5 -->
      <g style="fill: #ffffff" transform="translate(284.665366 317.985558) scale(0.088 -0.088)">
       <use xlink:href="#Cantarell-Regular-35"/>
      </g>
     </g>
    </g>
    <g id="xtick_24">
     <g id="line2d_62">
      <path d="M 340.421884 306.531808 
L 340.421884 183.145808 
" clip-path="url(#pf540465e4f)" style="fill: none; stroke: #666666; stroke-width: 0.5; stroke-linecap: square"/>
     </g>
     <g id="line2d_63">
      <path d="M 340.421884 306.531808 
" style="fill: none; stroke: #000000; stroke-width: 1.5; stroke-linecap: square"/>
      <g>
       <use xlink:href="#m4fda10a32a" x="340.421884" y="306.531808" style="stroke: #666666; stroke-width: 0.5"/>
      </g>
     </g>
     <g id="text_19">
      <!-- 10 -->
      <g style="fill: #ffffff" transform="translate(335.858946 317.985558) scale(0.088 -0.088)">
       <use xlink:href="#Cantarell-Regular-31"/>
       <use xlink:href="#Cantarell-Regular-30" x="42.299988"/>
      </g>
     </g>
    </g>
    <g id="xtick_25">
     <g id="line2d_64">
      <path d="M 393.767338 306.531808 
L 393.767338 183.145808 
" clip-path="url(#pf540465e4f)" style="fill: none; stroke: #666666; stroke-width: 0.5; stroke-linecap: square"/>
     </g>
     <g id="line2d_65">
      <path d="M 393.767338 306.531808 
" style="fill: none; stroke: #000000; stroke-width: 1.5; stroke-linecap: square"/>
      <g>
       <use xlink:href="#m4fda10a32a" x="393.767338" y="306.531808" style="stroke: #666666; stroke-width: 0.5"/>
      </g>
     </g>
     <g id="text_20">
      <!-- 15 -->
      <g style="fill: #ffffff" transform="translate(389.495213 317.985558) scale(0.088 -0.088)">
       <use xlink:href="#Cantarell-Regular-31"/>
       <use xlink:href="#Cantarell-Regular-35" x="42.299988"/>
      </g>
     </g>
    </g>
    <g id="xtick_26">
     <g id="line2d_66">
      <path d="M 260.403702 306.531808 
L 260.403702 183.145808 
" clip-path="url(#pf540465e4f)" style="fill: none; stroke: #737373; stroke-width: 0.25; stroke-linecap: square"/>
     </g>
    </g>
    <g id="xtick_27">
     <g id="line2d_67">
      <path d="M 313.749156 306.531808 
L 313.749156 183.145808 
" clip-path="url(#pf540465e4f)" style="fill: none; stroke: #737373; stroke-width: 0.25; stroke-linecap: square"/>
     </g>
    </g>
    <g id="xtick_28">
     <g id="line2d_68">
      <path d="M 367.094611 306.531808 
L 367.094611 183.145808 
" clip-path="url(#pf540465e4f)" style="fill: none; stroke: #737373; stroke-width: 0.25; stroke-linecap: square"/>
     </g>
    </g>
    <g id="text_21">
     <!-- time -->
     <g style="fill: #ffffff" transform="translate(206.334859 332.425121) scale(0.11 -0.11)">
      <defs>
       <path id="Cantarell-Regular-6d" d="M 4678 0 
L 5190 0 
L 5190 2022 
C 5190 2707 4742 3149 4058 3149 
C 3648 3149 3245 2982 2931 2688 
C 2739 2982 2413 3149 1990 3149 
C 1638 3149 1293 3027 1005 2816 
L 890 3085 
L 531 3085 
L 531 0 
L 1043 0 
L 1043 2413 
C 1274 2598 1549 2701 1843 2701 
C 2336 2701 2605 2419 2605 1920 
L 2605 0 
L 3117 0 
L 3117 2022 
C 3117 2150 3104 2266 3072 2374 
C 3309 2586 3603 2701 3917 2701 
C 4410 2701 4678 2419 4678 1920 
L 4678 0 
z
" transform="scale(0.015625)"/>
      </defs>
      <use xlink:href="#Cantarell-Regular-74"/>
      <use xlink:href="#Cantarell-Regular-69" x="36.099991"/>
      <use xlink:href="#Cantarell-Regular-6d" x="60.699982"/>
      <use xlink:href="#Cantarell-Regular-65" x="149.299973"/>
     </g>
    </g>
   </g>
   <g id="matplotlib.axis_8">
    <g id="ytick_22">
     <g id="line2d_69">
      <path d="M 225.729156 300.923354 
L 401.769156 300.923354 
" clip-path="url(#pf540465e4f)" style="fill: none; stroke: #666666; stroke-width: 0.5; stroke-linecap: square"/>
     </g>
    </g>
    <g id="ytick_23">
     <g id="line2d_70">
      <path d="M 225.729156 265.870513 
L 401.769156 265.870513 
" clip-path="url(#pf540465e4f)" style="fill: none; stroke: #666666; stroke-width: 0.5; stroke-linecap: square"/>
     </g>
    </g>
    <g id="ytick_24">
     <g id="line2d_71">
      <path d="M 225.729156 230.817672 
L 401.769156 230.817672 
" clip-path="url(#pf540465e4f)" style="fill: none; stroke: #666666; stroke-width: 0.5; stroke-linecap: square"/>
     </g>
    </g>
    <g id="ytick_25">
     <g id="line2d_72">
      <path d="M 225.729156 195.764831 
L 401.769156 195.764831 
" clip-path="url(#pf540465e4f)" style="fill: none; stroke: #666666; stroke-width: 0.5; stroke-linecap: square"/>
     </g>
    </g>
    <g id="ytick_26">
     <g id="line2d_73">
      <path d="M 225.729156 283.396933 
L 401.769156 283.396933 
" clip-path="url(#pf540465e4f)" style="fill: none; stroke: #737373; stroke-width: 0.25; stroke-linecap: square"/>
     </g>
    </g>
    <g id="ytick_27">
     <g id="line2d_74">
      <path d="M 225.729156 248.344092 
L 401.769156 248.344092 
" clip-path="url(#pf540465e4f)" style="fill: none; stroke: #737373; stroke-width: 0.25; stroke-linecap: square"/>
     </g>
    </g>
    <g id="ytick_28">
     <g id="line2d_75">
      <path d="M 225.729156 213.291251 
L 401.769156 213.291251 
" clip-path="url(#pf540465e4f)" style="fill: none; stroke: #737373; stroke-width: 0.25; stroke-linecap: square"/>
     </g>
    </g>
   </g>
   <g id="line2d_76">
    <path d="M 233.730974 195.764831 
L 234.370693 195.8679 
L 235.010412 196.205695 
L 235.756751 196.86973 
L 236.60971 197.947544 
L 237.675908 199.710906 
L 238.848726 202.098498 
L 240.341404 205.672586 
L 242.260561 210.893111 
L 245.352536 220.070323 
L 250.150428 234.255046 
L 252.709304 241.115534 
L 254.94832 246.511679 
L 256.974097 250.849901 
L 258.893254 254.466242 
L 260.812411 257.605237 
L 262.624948 260.145899 
L 264.437485 262.296578 
L 266.143403 263.988661 
L 267.84932 265.384741 
L 269.661857 266.57421 
L 271.474394 267.493783 
L 273.393551 268.210367 
L 275.419328 268.721538 
L 277.658344 269.04393 
L 280.1106 269.165226 
L 282.989336 269.078694 
L 286.72103 268.727677 
L 293.118219 267.858768 
L 301.327946 266.805053 
L 307.405276 266.260088 
L 313.802466 265.916941 
L 321.372474 265.743063 
L 332.567556 265.732107 
L 381.612678 265.876365 
L 393.767338 265.872791 
L 393.767338 265.872791 
" clip-path="url(#pf540465e4f)" style="fill: none; stroke: #000000; stroke-width: 0.886227"/>
   </g>
   <g id="patch_9">
    <path d="M 225.729156 183.145808 
L 401.769156 183.145808 
L 401.769156 168.559004 
L 225.729156 168.559004 
z
" style="fill: #333333"/>
   </g>
   <g id="text_22">
    <!-- iteration 15 -->
    <g style="fill: #ffffff" transform="translate(291.943719 178.149344) scale(0.088 -0.088)">
     <use xlink:href="#Cantarell-Regular-69"/>
     <use xlink:href="#Cantarell-Regular-74" x="24.599991"/>
     <use xlink:href="#Cantarell-Regular-65" x="60.699982"/>
     <use xlink:href="#Cantarell-Regular-72" x="113.499969"/>
     <use xlink:href="#Cantarell-Regular-61" x="151.199966"/>
     <use xlink:href="#Cantarell-Regular-74" x="202.399963"/>
     <use xlink:href="#Cantarell-Regular-69" x="238.499954"/>
     <use xlink:href="#Cantarell-Regular-6f" x="263.099945"/>
     <use xlink:href="#Cantarell-Regular-6e" x="319.799942"/>
     <use xlink:href="#Cantarell-Regular-20" x="376.499939"/>
     <use xlink:href="#Cantarell-Regular-31" x="398.499924"/>
     <use xlink:href="#Cantarell-Regular-35" x="440.799911"/>
    </g>
   </g>
  </g>
  <g id="text_23">
   <!-- $\zeta$ = 0.7 -->
   <g style="fill: #ffffff" transform="translate(197.913156 17.139187) scale(0.132 -0.132)">
    <defs>
     <path id="DejaVuSans-Oblique-3b6" d="M 1966 397 
Q 2378 394 2578 159 
Q 2794 -88 2722 -463 
Q 2650 -822 2372 -1072 
Q 2069 -1344 1559 -1344 
Q 1606 -1109 1650 -872 
Q 1863 -888 2022 -750 
Q 2144 -641 2166 -525 
Q 2197 -359 2125 -222 
Q 2050 -91 1872 -91 
Q -22 -91 316 1669 
Q 616 3206 2609 4284 
L 947 4284 
L 1059 4863 
L 3778 4863 
L 3666 4284 
Q 1181 3147 894 1669 
Q 647 397 1966 397 
z
" transform="scale(0.015625)"/>
     <path id="Cantarell-Regular-3d" d="M 352 1075 
L 3360 1075 
L 3360 1549 
L 352 1549 
L 352 1075 
z
M 352 2630 
L 3360 2630 
L 3360 3104 
L 352 3104 
L 352 2630 
z
" transform="scale(0.015625)"/>
     <path id="Cantarell-Regular-37" d="M 762 0 
L 1306 0 
L 3149 4186 
L 3149 4442 
L 173 4442 
L 173 3981 
L 2528 3981 
L 762 0 
z
" transform="scale(0.015625)"/>
    </defs>
    <use xlink:href="#DejaVuSans-Oblique-3b6" transform="translate(0 0.015625)"/>
    <use xlink:href="#Cantarell-Regular-20" transform="translate(54.394531 0.015625)"/>
    <use xlink:href="#Cantarell-Regular-3d" transform="translate(76.394516 0.015625)"/>
    <use xlink:href="#Cantarell-Regular-20" transform="translate(134.394501 0.015625)"/>
    <use xlink:href="#Cantarell-Regular-30" transform="translate(156.394485 0.015625)"/>
    <use xlink:href="#Cantarell-Regular-2e" transform="translate(217.794479 0.015625)"/>
    <use xlink:href="#Cantarell-Regular-37" transform="translate(243.39447 0.015625)"/>
   </g>
  </g>
 </g>
 <defs>
  <clipPath id="pf846577801">
   <rect x="44.649156" y="40.419808" width="176.04" height="123.386"/>
  </clipPath>
  <clipPath id="p7d77ef68df">
   <rect x="225.729156" y="40.419808" width="176.04" height="123.386"/>
  </clipPath>
  <clipPath id="pfc713a683b">
   <rect x="44.649156" y="183.145808" width="176.04" height="123.386"/>
  </clipPath>
  <clipPath id="pf540465e4f">
   <rect x="225.729156" y="183.145808" width="176.04" height="123.386"/>
  </clipPath>
 </defs>
</svg>
